<svg xmlns="http://www.w3.org/2000/svg" viewBox="0 0 1328 760" preserveAspectRatio="xMidYMid meet"><path d="M655.246-95.008q10.213.01 20.426-.004c94.582-.112 189.049 1.868 706.2 137.314 75.77 76.468 108.11 185.63 112.136 334.358-.008 3.34 0 6.68.012 10.02.386 110.595-21.121 220.916-112.148 331.018-50.663 50.536-117.152 72.507-706.2 137.314l-2.918-.004q-10.213-.01-20.426.004c-94.582.112-189.049-1.868-706.2-137.314-75.77-76.468-108.11-185.63-112.136-334.358.008-3.34 0-6.68-.012-10.02-.386-110.595 21.121-220.916 112.148-331.018C-3.209-8.234 63.28-30.205 655.246-95.008"/><path fill="#f8f8f8" d="M596 190c3.15 1.945 5.6 4.191 8 7l1.281 1.375c1.115 2.52.18 4.656-.343 7.313-.292 2.962-.292 2.962 1.062 5.312 4.387 1.305 9.211.524 13.707.207 4.364-.29 8.1.189 12.36 1.094 3.2.678 5.655 1.087 8.933.699 2.18-3.34 2.247-5.33 1.816-9.27-1.472-2.858-1.472-2.858-3.719-3.259-5.061-.372-10.095.09-15.126.68C622 201 622 201 620.745 199.62c-1.346-2.927-.981-5.434-.745-8.62 2.554-1.277 4.369-1.134 7.228-1.145l3.307-.02 3.586-.003 3.67-.01q3.846-.009 7.694-.007c3.286 0 6.572-.014 9.859-.031q3.79-.015 7.58-.013 1.816 0 3.634-.013c1.695-.01 3.39-.006 5.084 0l2.923-.005c2.475.251 3.626.564 5.435 2.247.11 1.691.11 1.691-.25 3.563l-.328 1.878C679 199 679 199 678 200a75 75 0 0 1-4.197-.303c-7.55-.494-7.55-.494-14.803 1.303-3.535 4.665-1.982 12.153-1.617 17.605q.07 2.7.107 5.401c.088 4.759.278 9.507.5 14.261.352 7.59.615 15.179.756 22.776.073 2.657.23 5.3.392 7.953.36 9.306.36 9.306-1.138 13.004-3.444 3.676-8.214 4.968-13 6h-3c-.246-2.286-.272-4.309-.182-6.594l.047-2.123q.053-2.293.123-4.587c.07-2.415.117-4.83.155-7.246.11-6.872.242-13.743.447-20.613.123-4.195.198-8.388.242-12.585q.038-2.407.134-4.812c.268-6.8.268-6.8-.966-13.44-3.348-1.886-6.281-1.472-10-1l-2.844-.177a457 457 0 0 0-7.281-.136l-2.55-.087c-6.91-.07-12.16 1.507-17.321 6.224l-1.442 1.863c-5.48 6.694-11.207 12.716-18.562 17.313l-1 2 2.262.309c3.023.763 4.284 1.658 6.55 3.754l2.051 1.89L594 250l2.293 2.172c4.141 4.017 4.141 4.017 5.707 5.828v2h2c3 5.308 3 5.308 3 8h2c1.508 1.898 1.508 1.898 3.125 4.375l1.633 2.46C615 277 615 277 615 279h2c1.046 1.398 1.046 1.398 2.18 3.375l1.297 2.213 1.398 2.412c12.71 21.344 28.262 42.678 52.125 52l-.027-2.157a3283 3283 0 0 1-.18-20.38q-.028-5.235-.095-10.47c-.594-46.36-.594-46.36 14.677-63.118 6.834-5.972 13.5-7.515 22.488-7.191C722.917 236.9 733.333 243.848 741 253c7.984 10.196 12.998 23.121 12.36 36.191-2.305 18.01-13.614 33.398-27.36 44.809-7.472 5.603-17.482 11.824-26.79 13.28-1.963.348-3.474.73-5.21 1.72-.673 2.81-.766 4.471-.566 7.277l.079 2.271c.26 6.005.907 11.979 1.522 17.956 3.117 30.948 3.117 30.948-2.547 38.707-3.439 3.547-7.23 6.254-11.54 8.652-2.364 1.38-4.071 3.162-5.948 5.137h-2c-.153-2.425-.166-4.737-.1-7.16l.038-2.306q.042-2.49.095-4.98c.053-2.62.089-5.241.119-7.863.086-7.456.181-14.911.342-22.366.096-4.551.155-9.102.187-13.655q.03-2.612.104-5.225c.067-2.43.085-4.854.091-7.285l.097-2.21c.07-2.191.07-2.191-.973-4.95-2.73-.67-5.236-.328-8 0-13.445-1.04-24.847-8.581-34-18l-1.781-1.719c-4.454-4.621-7.728-10.038-11.094-15.469l-1.482-2.378c-2.333-3.856-3.939-6.929-4.643-11.434h-2c-.99-1.617-.99-1.617-2.023-3.875l-1.157-2.488-1.195-2.637q-1.167-2.532-2.336-5.062l-1.147-2.504c-1.401-2.987-2.899-5.918-4.43-8.84C597 275 597 275 597 273h-2l-1.562-3c-4.748-8.655-13.95-14.811-23.32-17.55-2.155-.458-4.063-.56-6.263-.555l-2.298-.045a196 196 0 0 0-4.797-.016c-3.87-.11-3.87-.11-5.76-.834-.344-2.89-.344-2.89 1-6 2.3-1.504 2.3-1.504 5.313-2.562q1.644-.614 3.289-1.227l1.708-.607C578.1 235.015 578.1 235.015 589 223l1-3h2c.093-2.313.04-4.45-.125-6.75l-.07-1.922c-.227-3.397-.53-4.973-2.668-7.738-2.352-1.75-4.043-2.335-6.992-2.188-4.847 1.351-9.19 4.573-13.145 7.598l-1 2c-2.187-.062-2.187-.062-4-1 2.466-8.503 10.863-14.325 18.133-18.695 4.727-2.151 8.832-2.666 13.867-1.305"/><path fill="#030303" d="M720.355 246.664c10.4 5.254 15.9 12.524 19.645 23.336 3.668 11.703 1.142 28.073-3.928 39-2.31 4.286-5.073 8.174-8.072 12l-1.115 1.453C721.573 329.248 715.53 333.868 708 338c-.64.36-1.279.722-1.937 1.094a25.55 25.55 0 0 1-12.053 2.735C692 341 692 341 691.02 338.696c-.55-3.536-.795-7-.958-10.571q-.14-1.987-.289-3.975c-.2-2.724-.374-5.447-.53-8.173-.213-3.637-.517-7.256-.853-10.883-.96-10.522-1.59-21.027-1.703-31.594l-.054-2.767c.008-7.362 1.25-14.255 5.116-20.608 8.546-8.071 17.957-7.757 28.605-3.46"/><path fill="#fdfdfd" d="m627.228 189.855 3.307-.02 3.586-.003 3.67-.01q3.846-.009 7.694-.007c3.286 0 6.572-.014 9.859-.031q3.79-.015 7.58-.013 1.816 0 3.634-.013c1.695-.01 3.39-.006 5.084 0l2.923-.005c2.475.251 3.626.564 5.435 2.247.11 1.691.11 1.691-.25 3.562l-.328 1.88C679 199 679 199 678 200a75 75 0 0 1-4.197-.303c-7.55-.494-7.55-.494-14.803 1.303-3.535 4.665-1.982 12.153-1.617 17.605q.07 2.7.107 5.401c.088 4.759.278 9.507.5 14.261.352 7.59.615 15.179.756 22.776.073 2.657.23 5.3.392 7.953.36 9.306.36 9.306-1.138 13.004-3.444 3.676-8.214 4.968-13 6h-3c-.263-2.285-.304-4.307-.23-6.594l.033-2.123q.038-2.294.094-4.587c.056-2.415.091-4.83.12-7.246q.121-10.308.346-20.613c.091-4.195.149-8.39.184-12.585q.031-2.406.101-4.812c.065-2.24.087-4.476.1-6.717l.09-2.03c.064-2.04.064-2.04-.838-4.693-2.402-.893-4.396-.893-7-1v-1l1.531.36c2.827.579 2.827.579 5.469-.36 1.391-3.443 1.968-6.412 1.566-10.117L642 201c-5.697-1.648-12.137-.556-17.937.134C622 201 622 201 620.731 199.622c-1.322-2.933-.967-5.438-.731-8.622 2.554-1.277 4.369-1.134 7.228-1.145"/><path fill="#fbfbfa" d="M728.063 241.688c13.425 8.479 20.884 21.261 24.546 36.399 2.306 11.28-.567 23.224-6.609 32.913-11.47 17.002-25.384 29.3-45 36q-2.091.268-4.187.5L694 349c-.695 3.452-.9 6.715-.93 10.227L693 362h-1a166 166 0 0 1-.187-7.937l-.038-2.288-.005-2.177-.013-2.016L692 346l2-1-2-2v-2c2.238-.422 2.238-.422 5.313-.75 11.609-1.787 21.85-8.555 28.947-17.911C736.676 307.58 741.484 292.117 740 274c-1.739-9.961-6.291-17.53-14.484-23.457-7.527-4.617-15.692-7.04-24.516-5.543-4.194 1.464-7.009 3.38-9.344 7.195-2.423 5.245-3.781 10.052-3.789 15.84l-.004 2.955.012 3.072-.012 2.99c.008 5.86.325 11.603.91 17.433.308 3.407.375 6.784.352 10.202l.012 1.874A94 94 0 0 1 689 311h-1a56 56 0 0 1-.5-4.117l-.248-2.743-.252-3.015-.265-3.077c-.753-9.228-1.133-18.45-1.393-27.704l-.096-3.172-.072-2.81c-.088-2.513-.088-2.513-1.174-5.362l-1.312 2.438C681 264 681 264 678 265c1.132-8.862 5.38-17.606 12.105-23.598 11.922-8.824 25.697-6.553 37.957.286"/><path fill="#985800" d="M260 461h3c5.696 17.09 3.317 39.387 3.26 57.248-.01 3.651-.004 7.302.008 10.954.05 18.63.08 37.402-3.268 55.798-1.949-.678-1.949-.678-4-2-.633-2.265-.633-2.265-.817-5.157l-.23-3.329q-.095-1.841-.183-3.682l-.227-3.876c-.862-15.705-.882-31.439-.859-47.163.006-4.288-.011-8.575-.034-12.863-.015-3.374-.016-6.749-.013-10.123q0-2.37-.015-4.742c-.047-8.175.3-16.085 1.713-24.152l.353-2.11c.376-1.914.376-1.914 1.312-4.803"/><path fill="#0a0a0a" d="M839.188 502.063c4.468 3.078 8.08 6.739 9.812 11.937.582 5.937-.614 10.06-4 15-3.316 3.506-6.35 5.766-11.305 6.203-6.682.122-9.955-.759-15.008-5.265C817 528 817 528 817 526h-2c-1.557-4.671-2.089-10.112-.316-14.812 5.612-8.943 14.386-12.498 24.504-9.125"/><path fill="#8e5200" d="M1004 461h3c.695 2.203.695 2.203 1.125 5.25l.445 2.953c1.275 10.635 1.593 21.144 1.598 31.84l.01 4.612q.009 4.82.007 9.639 0 4.858.02 9.717c.219 52.142.219 52.142-3.205 58.989h-3c-4.562-11.353-3.162-26.438-3.168-38.562l-.01-4.445a4394 4394 0 0 1-.007-9.288q0-4.662-.02-9.324c-.07-16.055.036-32.046 1.154-48.068l.131-1.905c.721-10.21.721-10.21 1.92-11.408"/><path fill="#f8f8f7" d="M596 190c3.15 1.945 5.6 4.191 8 7l1.281 1.375c1.115 2.52.18 4.656-.343 7.313-.292 2.962-.292 2.962 1.062 5.312 4.387 1.305 9.211.524 13.707.207 4.363-.29 8.098.187 12.355 1.094 3.187.673 5.68 1.095 8.938.699 1.542-4.107.73-7.766 0-12h1c.717 4.48.935 8.543 0 13-2.502 1.78-5.13 1.35-8.106 1.129-3.118-.212-6.236-.249-9.36-.283a174 174 0 0 1-5.224-.144c-6.94-.16-12.12 1.383-17.306 6.122l-1.442 1.863c-5.48 6.694-11.207 12.716-18.562 17.313l-1 2 2.375.375C586 243 586 243 588 245a168 168 0 0 1-3.875-.312l-2.18-.176C580 244 580 244 578.665 242.594c-.22-.526-.44-1.052-.665-1.594 1.25-2.187 1.25-2.187 3-4h2v-2l-1.574.875c-6.927 3.687-6.927 3.687-11.426 3.125 2.85-2.238 5.763-4.009 8.938-5.75 5.656-3.345 8.982-7.01 11.062-13.25h2c.093-2.313.04-4.45-.125-6.75l-.07-1.922c-.227-3.397-.53-4.973-2.668-7.738-2.352-1.75-4.043-2.335-6.992-2.188-4.847 1.351-9.19 4.573-13.145 7.598l-1 2c-2.187-.062-2.187-.062-4-1 2.466-8.503 10.863-14.325 18.133-18.695 4.727-2.151 8.832-2.666 13.867-1.305"/><path fill="#905300" d="M1031 461h3c2.201 6.306 2.185 13.722 2.544 20.363l.13 2.373c.416 8.193.49 16.375.494 24.577l.01 4.77q.009 4.952.007 9.902c0 4.175.014 8.35.031 12.524q.015 4.91.013 9.823 0 2.306.013 4.61c.132 28.31.132 28.31-3.242 35.058l-3-1c-.581-2.615-.931-5.006-1.17-7.66l-.242-2.43c-.912-10.103-.877-20.216-.854-30.351l-.005-6.316q-.005-6.561.01-13.122c.012-5.588.005-11.176-.007-16.764q-.009-6.497 0-12.995.003-3.09-.005-6.182c-.005-2.877.003-5.754.014-8.631l-.012-2.537c.037-5.28.108-11.115 2.271-16.012"/><path fill="#945600" d="M288 461h2c4.362 16.561 3.393 34.23 3.264 51.205a1730 1730 0 0 0-.027 8.854c-.02 14.11-.157 28.221-.572 42.326q-.055 1.875-.1 3.748c-.044 1.718-.102 3.435-.16 5.152l-.09 2.92c-.357 3.17-1.09 5.85-2.315 8.795h-2c-.598-1.906-.598-1.906-1.062-4.5l-.473-2.531c-.98-6.256-1.614-12.34-1.594-18.676l-.006-2.196q-.004-3.563.002-7.124 0-2.512-.003-5.023-.002-5.259.006-10.518.006-6.666-.004-13.332-.005-5.19 0-10.38 0-2.454-.002-4.907c-.01-8.361.105-16.693.586-25.042l.119-2.078c.736-11.564.736-11.564 2.431-16.693"/><path fill="#f3f3f1" d="M728.063 241.688c9.897 6.25 18.371 15.995 21.937 27.312l-1 3c-4.047-4.586-5.625-9.04-7-15l-4 7-1.125-1.562L735 260l-1.254-1.648c-6.284-7.842-14.492-12.409-24.48-13.707-5.67-.29-9.94.31-14.61 3.66-5.03 5.149-6.78 12.736-6.789 19.73l-.004 2.955.012 3.072-.012 2.99c.008 5.86.325 11.603.91 17.433.308 3.407.375 6.784.352 10.202l.012 1.874A94 94 0 0 1 689 311h-1a56 56 0 0 1-.5-4.117l-.248-2.743-.252-3.015-.265-3.077c-.753-9.228-1.133-18.45-1.393-27.704l-.096-3.172-.072-2.81c-.088-2.513-.088-2.513-1.174-5.362l-1.312 2.438C681 264 681 264 678 265c1.132-8.862 5.38-17.606 12.105-23.598 11.922-8.824 25.697-6.553 37.957.286"/><path fill="#efeeee" d="M746 496c3.337-.529 6.752-.37 10.125-.375l2.883-.074c6.005-.025 9.39.511 13.992 4.449 1.632 1.632 1.288 3.44 1.375 5.688-.033 4.596-.859 6.936-3.988 10.253-3.381 2.582-6.188 1.847-10.137 1.371-2.888-.228-2.888-.228-5.25.688-1.082 4.185-.552 7.997 1 12 2.512 1.3 2.512 1.3 5 2v2c-1.469.259-1.469.259-3.5.266l-2.187.007-2.313-.023-2.312.023-2.188-.007-2.031-.007L745 534v-2l1.969-.184L749 531c.413-2.496.537-4.56.496-7.062l.005-2.141a353 353 0 0 0-.034-4.49c-.03-2.298-.021-4.594-.008-6.893q-.01-2.175-.025-4.351l.008-2.096c-.006-2.123-.006-2.123-.442-4.967l-3-1z"/><path fill="#c5c5c5" d="M781 501c3.041-.117 6.082-.188 9.125-.25l2.594-.102c5.718-.088 9.003.419 13.281 4.352 1.066 2.75.798 5.177 0 8-1.207 1.418-1.207 1.418-2.625 2.625L801 518c.612 5.508 4.417 9.92 8 14l2 1v2c-2.625.563-2.625.563-6 0-4.044-3.426-6.915-8.17-9.727-12.617-1.621-1.761-2.95-2-5.273-2.383.06 1.813.148 3.626.25 5.438l.14 3.058L791 531c1.999.781 1.999.781 4 1v2c-2.38.206-4.62.278-7 .25l-2.023.023c-1.662-.006-3.322-.13-4.977-.273v-2l1.983.267L785 532c.35-2.25.396-4.024.277-6.273l-.063-1.937a292 292 0 0 0-.175-4.07 312 312 0 0 1-.225-6.236q-.077-1.973-.162-3.945l-.057-1.89c-.131-3.432-.131-3.432-2.136-6.058z"/><path fill="#dadada" d="M525 501c3.062-.088 6.124-.14 9.188-.187l2.619-.077c8.526-.098 8.526-.098 12.193 3.264 1.062 3.524.8 7.383-.84 10.7-1.035 1.362-1.035 1.362-3.16 3.3h-2a1727 1727 0 0 0 4.875 6.938l1.395 1.998 1.347 1.904 1.238 1.761c1.112 1.553 1.112 1.553 3.145 2.399v2c-2.687.438-2.687.438-6 0-4.251-3.295-6.732-7.524-9.473-12.11-1.767-2.187-2.787-2.536-5.527-2.89.06 1.813.148 3.626.25 5.438l.14 3.058L535 531c1.999.781 1.999.781 4 1v2c-2.38.206-4.62.278-7 .25l-2.023.023c-1.662-.006-3.322-.13-4.977-.273v-2l1.983.267L529 532c.35-2.25.396-4.024.277-6.273l-.063-1.937a292 292 0 0 0-.175-4.07 312 312 0 0 1-.225-6.236q-.077-1.973-.162-3.945l-.057-1.89c-.131-3.432-.131-3.432-2.136-6.058z"/><path fill="#cfcfcf" d="M368 501h13l-3 2c-1.643 4.5-2.623 8.411-1 13 4.668 2.264 10.402 1.882 15.35.765 1.965-.68 1.965-.68 2.666-3.382-.452-5.436-1.095-8.462-5.016-12.383h13l-4 3c-.617 2.879-.617 2.879-.531 6.164l-.012 1.796q-.004 1.874.022 3.747c.021 1.92 0 3.835-.026 5.754q.004 1.82.016 3.64l.013 3.355L399 531c1.986.81 1.986.81 4 1v2c-2.38.206-4.62.278-7 .25l-2.023.023c-1.662-.006-3.322-.13-4.977-.273v-2l1.887-.215L393 531c1.83-4.461 2.65-8.405 1-13-4.622-2.36-10.362-2.061-15.293-.873-2.094.838-2.094.838-3.016 4.041-.275 3.868.01 7.17 1.309 10.832 2.558.417 2.558.417 5 0v2c-2.38.206-4.62.278-7 .25l-2.023.023c-1.662-.006-3.322-.13-4.977-.273v-2l1.983.267L372 532c.35-2.25.396-4.024.277-6.273l-.063-1.937a292 292 0 0 0-.175-4.07 312 312 0 0 1-.225-6.236q-.077-1.973-.162-3.945l-.057-1.89c-.077-1.958-.077-1.958-.595-4.649z"/><path fill="#faf9f9" d="M690 501h13l-4 3c-1.37 3.22-1.854 5.904-2.117 9.387.806 2.72.806 2.72 2.87 3.362 5.258 1.076 11.226 1.4 16.247-.749 1.75-4.225.629-7.848-1-12l-3-3h13l-4 3c-.617 2.879-.617 2.879-.531 6.164l-.012 1.796q-.004 1.874.022 3.747c.021 1.92 0 3.835-.026 5.754q.004 1.82.016 3.64l.013 3.355L721 531c1.986.81 1.986.81 4 1v2c-2.38.206-4.62.278-7 .25l-2.023.023c-1.662-.006-3.322-.13-4.977-.273v-2l1.887-.215L715 531c1.83-4.461 2.65-8.405 1-13-4.622-2.36-10.362-2.061-15.293-.873-2.094.838-2.094.838-3.016 4.041-.275 3.868.01 7.17 1.309 10.832 2.558.417 2.558.417 5 0v2c-2.38.206-4.62.278-7 .25l-2.023.023c-1.662-.006-3.322-.13-4.977-.273v-2l1.967.267L694 532c.441-2.242.56-4.015.531-6.273l.012-1.937q.004-2.035-.022-4.07c-.02-2.08 0-4.156.026-6.236q-.004-1.973-.016-3.945l.025-1.89c.003-1.96.003-1.96-.556-4.649z"/><path fill="#dbdbdb" d="M623 501c3.104-.656 5.898-.65 9 0 2.83 2.118 4.716 4.757 6.75 7.625l3.234 4.29 1.53 2.09c2.056 2.76 4.254 5.375 6.486 7.995.116-3.104.187-6.207.25-9.312l.102-2.67.039-2.569.063-2.364c-.347-2.686-.347-2.686-4.454-5.085h12l-3 2a55 55 0 0 0-.512 7.195l-.054 2.144a735 735 0 0 0-.121 6.786 2608 2608 0 0 1-.104 4.598q-.126 5.639-.209 11.277c-2.734-1.225-4.515-2.273-6.297-4.687l-1.205-1.605L645.25 527q-1.315-1.757-2.633-3.512l-1.321-1.77c-1.924-2.55-3.916-5.044-5.921-7.53l-1.977-2.458L632 510a692 692 0 0 0-.25 10.438l-.102 3.01-.039 2.86-.063 2.65L632 531c1.991.714 1.991.714 4 1v2c-2.625.266-2.625.266-6 .25l-3.375.016L624 534v-2l3-1c1.799-4.679 1.305-10.125 1.375-15.062l.113-3.05c.033-2.721.023-5.213-.488-7.888-2.34-2.22-2.34-2.22-5-3z"/><path fill="#d8d7d8" d="M839.188 502.063c4.468 3.078 8.08 6.739 9.812 11.937.582 5.937-.614 10.06-4 15-3.316 3.506-6.35 5.766-11.305 6.203-6.682.122-9.955-.759-15.008-5.265C817 528 817 528 817 526h-2c-1.557-4.671-2.089-10.112-.316-14.812 5.612-8.943 14.386-12.498 24.504-9.125M821 508c-1.952 6.046-1.97 12.669.75 18.438 1.698 2.928 3.093 5.119 6.25 6.562 3.21.459 6.054.243 9.188-.562 3.745-2.97 5.543-6.395 6.167-11.133.205-7.16-.66-11.292-5.48-16.68-6.642-3.754-12.45-2.709-16.875 3.375"/><path fill="#b4b3b3" d="M328 494h3v2c2.586.203 2.586.203 5.8.012l1.795-.069q1.889-.075 3.776-.164c1.922-.09 3.845-.166 5.768-.238 6.527-.158 6.527-.158 12.861-1.541.247 1.831.472 3.665.688 5.5l.386 3.094L362 505h-3l-.371-2.418L358 500c-2.311-1.045-2.311-1.045-5.062-1.312l-2.786-.426L348 498q.066 7.023.208 14.044.042 2.391.063 4.781c.021 2.287.068 4.572.12 6.859l.003 2.171c.019 2.205.019 2.205.606 5.145 1.976.925 1.976.925 4 1v2c-1.56.259-1.56.259-3.719.266l-2.324.007-2.457-.023-2.457.023-2.324-.007-2.158-.007L336 534v-2l2.944-.166L342 531c.71-2.72.913-4.597.902-7.352l.04-2.222q.025-2.328.005-4.655c-.01-2.397.06-4.782.137-7.177.05-4.046 0-7.677-1.084-11.594-2.645-1.2-4.094-.802-6.875-.094-3.351 1.725-3.867 3.616-5.125 7.094h-2c-.3-2.406-.3-2.406-.312-5.5l-.051-3.094z"/><path fill="#d3d2d2" d="m600 501 2.063-.375c2.6 1.845 2.811 3.548 3.445 6.586.535 1.944 1.367 3.13 2.492 4.789a70 70 0 0 1 1.438 4.063l.78 2.378q.808 2.652 1.5 5.336l.72 2.723.62 2.531L614 531c2.045.687 2.045.687 4 1v2a67 67 0 0 1-6.5.125l-1.879-.027c-1.54-.024-3.08-.06-4.621-.098l1-2h2l-1-2.187c-1-2.813-1-2.813-.691-5.43L606 522c-4.054-1.315-7.935-1.241-12 0-1.646 3.286-1.811 6.424-1 10h3v2c-2.406.266-2.406.266-5.5.25l-3.094.016L585 534v-2l3-1a54 54 0 0 0 2.438-5.937q.649-1.784 1.3-3.567l.643-1.793c1.159-3.188 2.436-6.326 3.72-9.465q.886-2.204 1.672-4.445c.727-1.98.727-1.98 2.227-4.793"/><path fill="#ededed" d="m469.563 495.875 1.826-.012c4.484.01 4.484.01 5.611 1.137.168 1.848.168 1.848.188 4.063l.042 2.222L477 505h-2a264 264 0 0 1-3-5c-2.763-1.381-4.947-1.19-8-1-2.357 1.913-2.357 1.913-2.187 5.25.454 2.665 1.004 3.588 3.054 5.402 2.333 1.544 4.704 2.963 7.133 4.348 5.835 3.67 5.835 3.67 7 6 .516 3.341.88 6.638-1.012 9.566-1.3 1.309-1.3 1.309-3.988 3.434l-1.328 1.117c-2.4 1.267-4.413 1.148-7.11 1.133l-2.87.016c-2.8-.277-4.452-.556-6.692-2.266-.39-2.164-.39-2.164-.25-4.625l.11-2.477L456 524c3.88 3.75 3.88 3.75 4.813 5.688 1.806 1.996 3.845 2.008 6.433 2.394 2.224-.104 3.14-.554 4.754-2.082.904-2.785.844-5.204 0-8-1.79-1.65-3.605-2.648-5.758-3.777-3.921-2.139-8.213-5.165-10.242-9.223-.404-2.964-.564-5.089 1.047-7.691 3.88-4.736 6.425-5.473 12.515-5.434"/><path fill="#f9f7f8" d="M485 501h13l-3 2c-.465 2.237-.465 2.237-.398 4.832l-.012 2.92.035 3.06-.035 3.026c-.03 7.104-.03 7.104 3.41 13.162 2.927 1.464 5.814 1.393 9 1 3.114-1.825 3.644-4.596 4.57-7.96.756-3.588.799-7.135.805-10.79l.074-2.285.012-2.2.025-1.975c-.457-2.409-.457-2.409-4.486-4.79h12l-3 2c-.472 1.662-.472 1.662-.441 3.563l-.076 2.151-.045 2.286a765 765 0 0 1-.208 4.637l-.107 2.27c-.594 10.139-.594 10.139-3.26 13.546-4.107 3.503-8.475 3.882-13.633 3.84-3.483-.458-4.888-1.725-7.23-4.293v-2h-2c-1.308-2.617-1.048-4.451-.957-7.375l.064-3.234q.08-3.392.196-6.782l.052-3.234.083-2.977L489 503z"/><path fill="#c3c2c2" d="M410 501c3.833-.202 7.664-.327 11.5-.437l3.324-.178c5.438-.118 5.438-.118 8.176.615 1.105 2.444.676 4.464 0 7-.68-.96-.68-.96-1.375-1.937-3.398-2.67-6.223-3.486-10.504-3.848L419 503c-1.524 4.548-1.497 8.446 0 13 2.612.976 4.23.544 6.934-.031L428 515l1-3h2c.266 2.188.266 2.188.25 5l.016 2.813L431 522h-2l-.867-1.457c-1.023-1.732-1.023-1.732-3.078-2.055l-2.18-.176-2.195-.199L419 518c-.21 4.516-.303 8.642 1 13 3.465 1.673 6.411 1.156 10 0 1.937-1.523 2.705-2.84 4-5h2c.557 2.207.446 3.928.11 6.175C435 534 435 534 432.472 534.692a89 89 0 0 1-8.656.021 165 165 0 0 0-5.623-.147c-6.37-.144-6.37-.144-9.193-.566v-2l2.477.267L414 532c.462-2.32.517-3.95.375-6.273l-.067-1.937a237 237 0 0 0-.193-4.07 269 269 0 0 1-.252-6.236q-.084-1.973-.175-3.945l-.067-1.89c-.153-3.433-.153-3.433-2.164-6.058z"/><path fill="#e4e4e4" d="m680 501 2 1c.394 2.418.18 4.53 0 7h-2l-.687-1.937c-1.08-2.183-1.08-2.183-2.961-2.586-2.16-.358-2.16-.358-5.352-.477-1.32 1.105-1.32 1.105-1.25 3.875-.055 3.043-.055 3.043 1.48 4.629 2.017 1.705 4.113 3.129 6.332 4.558 2.407 1.553 4.41 2.91 6.438 4.938.474 2.976.568 5.054-1.016 7.691-2.261 2.827-3.461 4.135-6.984 5.309a65 65 0 0 1-4.5.188l-2.344.042c-2.392-.255-3.44-.55-5.156-2.23-.617-1.945-.617-1.945-.875-4.125l-.305-2.195.18-1.68h3c1.625 2.938 1.625 2.938 3 6 1.113 1.327 1.113 1.327 3.938 1.25 2.96.05 2.96.05 4.437-1.375.945-2.835 1.066-4.917.625-7.875-2.151-1.18-2.151-1.18-5-2-7.047-4.325-7.047-4.325-9-8-.84-5.673-.84-5.673.992-8.566 4.314-4.278 9.232-4.161 15.008-3.434"/><path fill="#e8e7e7" d="M934 502c.46 1.848.46 1.848.375 4.063l-.04 2.222L934 510h-2l-.312-1.875c-.493-2.315-.493-2.315-2.75-3.375-3.745-.956-7.104-1.386-10.938-.75-3.578 2.178-5.418 4.17-7 8-.888 6.069-.063 10.989 2.734 16.406 1.982 2.495 4.14 3.381 7.23 3.965 4.015.186 4.015.186 7.56-1.457 1.204-1.263 2.343-2.587 3.476-3.914l3-1c-.487 5.478-.487 5.478-2.648 7.676-4.954 2.79-11.932 2.122-17.36.855-4.488-1.974-7.84-6.227-9.992-10.531a85 85 0 0 1-.187-5.312l-.043-2.864c.299-3.669 1.104-6.512 3.527-9.336 6.768-5.476 17.31-8.18 25.703-4.488"/><path fill="#e4e3e4" d="M555 501h12l-2 4c.847 2.152.847 2.152 2.375 4.125C570 512.845 570 512.845 570 515h3c1.006-1.878 1.006-1.878 1.625-4.25l.727-2.39L576 506c.235-.737.47-1.475.71-2.234L577 502l-2-1h10l-2.125 2.313c-6.546 8.027-9.549 14.89-9.477 25.132L574 531c1.99.808 1.99.808 4 1v2a89 89 0 0 1-7.5.125l-2.168-.027A659 659 0 0 1 563 534l1.95-1.137c2.268-1.724 2.268-1.724 2.757-4.508.337-10.113-3.387-16.666-9.707-24.355z"/><path fill="#6a3d00" d="M260 461h3c6.05 18.15 3.28 41.845 3.196 60.775-.011 3.105-.01 6.209-.01 9.313q-.001 4.495-.013 8.99l-.006 4.278q-.004 2.946-.022 5.89l-.011 3.379L266 556h-1a104 104 0 0 1-.19-5.593l-.025-1.803q-.025-1.952-.045-3.905-.033-3.105-.077-6.21-.088-6.62-.163-13.239-.089-7.613-.192-15.224-.038-3.03-.068-6.061c.822-13.485.822-13.485-3.24-24.965l-1-3c-.735 11.25-1.117 22.49-1.281 33.762l-.03 1.953q-.115 8.021-.215 16.042-.075 6.053-.166 12.104-.038 2.816-.068 5.63l-.05 3.394-.039 3.003L258 554h-1a141 141 0 0 1-.161-6.814l-.015-2.198q-.021-3.634-.027-7.27l-.017-5.063q-.015-5.337-.02-10.674c-.006-4.516-.03-9.032-.058-13.548-.019-3.5-.024-6.998-.026-10.497q-.004-2.492-.024-4.984c-.063-8.49.208-16.724 1.681-25.102l.353-2.098c.376-1.9.376-1.9 1.314-4.752"/><path fill="#eaeaea" d="M874 501q5.25-.042 10.5-.062l3.035-.026 2.871-.01 2.666-.016L895 501v1l-2.844-.395c-3.715-.475-6.53-.717-10.156.395-1.836 4.9-1.694 9.069 0 14 3.215 1.237 5.917.352 9-1l1-2h2c.266 1.969.266 1.969.25 4.5l.016 2.531L894 522h-2v-3c-2.271-.595-2.271-.595-5-.687l-2.812-.2L882 518c-.327 4.575-.517 8.63 1 13 4.097 1.596 7.859 1.406 12 0 1.3-2.495 1.3-2.495 2-5h2c.72 2.973.562 5.357-1 8-3.583 1.02-7.054.895-10.757.713-1.803-.088-3.6-.122-5.405-.147-6.254-.165-6.254-.165-8.838-.566v-2l1.969-.256L877 531c.61-2.66.61-2.66.496-5.898l.005-1.79a248 248 0 0 0-.034-3.758c-.03-1.915-.021-3.827-.008-5.741a983 983 0 0 0-.025-3.649l-.03-3.36c-.44-3.06-.982-3.971-3.404-5.804"/><path fill="#c1c0c1" d="M941 500c3.98-1.195 7.832-1.147 11.963-1.043 2.033.043 4.051 0 6.084-.05 3.498-.014 6.586.081 9.953 1.093 1.33 2.815.84 5.074 0 8l-.714-1.897c-1.131-2.255-1.131-2.255-3.42-3.22-3.492-.774-3.492-.774-6.866.117-1.259 4.094-1.12 8.063-.954 12.315.079 2.112.083 4.214.075 6.328q.03 1.989.074 3.978l.008 1.932c.033 1.945.033 1.945.797 4.447 2.534.365 2.534.365 5 0v2a81 81 0 0 1-7.5.25l-2.168.023c-1.78-.006-3.558-.13-5.332-.273v-2l1.944-.22L952 531c.553-2.296.794-4.146.89-6.477l.108-1.953a270 270 0 0 0 .17-4.09c.082-2.108.227-4.205.375-6.308.18-3.532.276-6.715-.543-10.172-2.333-1.029-3.637-.628-6.07.026-2.761 1.394-3.716 3.19-4.93 5.974h-1c-.731-2.126-.938-3.9-.91-6.148z"/><path fill="#dedddb" d="m692 240 2 1c-.875 1.563-.875 1.563-2 3l1.25-1.25L695 242c2.188 1.875 2.188 1.875 4 4l-2.75 1.438c-5.164 3.405-7.016 9.733-8.25 15.562a96 96 0 0 0-.133 5.035l-.004 2.955.012 3.072-.012 2.99c.008 5.86.325 11.603.91 17.433.308 3.407.375 6.784.352 10.202l.012 1.874A94 94 0 0 1 689 311h-1a56 56 0 0 1-.5-4.117l-.248-2.743-.252-3.015-.265-3.077c-.753-9.228-1.133-18.45-1.393-27.704l-.096-3.172-.072-2.81c-.088-2.513-.088-2.513-1.174-5.362l-1.312 2.438C681 264 681 264 678 265c1.2-9.392 5.72-17.452 12.484-23.988zm6 3 2 1Z"/><path fill="#0a0a0a" d="M873 500c2.095-.356 2.095-.356 4.996-.328l3.131.015 3.31.063 3.3.016c8.11.08 8.11.08 9.263 1.234.124 1.663.176 3.332.188 5l.042 2.75L897 511l-2 1c-.206 2.366-.206 2.366-.062 5.063.053 1.645.083 3.291.062 4.937h-1c-.033-2.35.07-4.684.16-7.031L894 513h-2l-1 3c-2.458.934-4.432 1.064-7.055 1.035L882 516c-.387-3.16-.331-5.875.07-9.02.28-2.107.28-2.107-.07-4.98-3.464-.618-5.676-.108-9 1z"/><path fill="#c0bfbf" d="M854 501h13l-3 2c-.445 2.777-.445 2.777-.371 6.04l-.053 3.698a958 958 0 0 0-.012 5.805c-.028 14.842-.028 14.842-4.564 20.457-2.75 1.5-2.75 1.5-5 2l.643-1.444c2.665-6.787 2.818-13.338 2.748-20.515-.016-2 0-3.997.02-5.996a1241 1241 0 0 0-.013-3.822l-.01-3.477L857 503z"/><path fill="#f5f5f3" d="m707.625 235.688 3.414-.051c3.275.402 3.906.94 5.961 3.363l2.25-.25 1.75.25c.399 2.545.12 4.68-1 7-3.186.542-5.1.45-8-1-2.93-.026-5.842.027-8.77.127-3.711.067-5.992-.389-9.23-2.127-2.268 1.284-2.268 1.284-4 3 1.786-4.167 4.111-7.067 8.223-9.098 3.25-1.056 5.988-1.203 9.402-1.214"/><path fill="#824b00" d="M1001 491h1c.122 1.847.168 3.698.19 5.549l.025 1.788q.026 1.935.045 3.87.032 3.072.077 6.145.088 6.542.163 13.086.088 7.536.192 15.073.038 3.007.068 6.016c.08 6.54.313 12.988 1.24 19.473l.938-2.5L1006 557h1c.91 5.65 1.155 11.162 1.125 16.875l.012 2.297-.004 2.195-.004 1.972C1008 582 1008 582 1007 584h-3c-4.68-11.646-3.152-27.17-3.133-39.582l-.003-4.653q-.002-4.826.006-9.653.006-6.202-.004-12.405a4917 4917 0 0 1 0-9.56q0-2.29-.002-4.58-.003-3.174.007-6.348l-.007-1.921c.008-1.433.065-2.866.136-4.298"/><path fill="#080808" d="M756 498c2.655-.898 4.024-.892 6.738-.145 2.348 1.188 3.72 2.015 5.262 4.145.398 2.375.398 2.375.375 5l.023 2.625c-.481 2.872-1.071 3.665-3.398 5.375-2.503 1.266-4.13 1.841-6.939 1.697L756 516c-1.972-4.832-1.972-13.168 0-18"/><path fill="#efefec" d="M727 321c1.227 1.29 1.227 1.29 2 3-1.414 1.648-1.414 1.648-3.625 3.375-5.771 4.658-5.771 4.658-9.164 11.11-1.562 3.245-2.925 3.768-6.211 5.14-.977.425-1.954.85-2.96 1.29-2.91 1.038-5.633 1.552-8.665 2.085-2.503.496-2.503.496-4.375 2-.926 3.52-1.101 6.643-1.035 10.262L693 362h-1a166 166 0 0 1-.187-7.937l-.038-2.288-.005-2.177-.013-2.016L692 346l2-1-2-2v-2c2.238-.422 2.238-.422 5.313-.75 11.453-1.763 19.791-8.138 27.687-16.25 1.232-1.649 1.232-1.649 2-3"/><path fill="#e9e8e8" d="M390 501h13l-4 3c-.617 2.879-.617 2.879-.531 6.164l-.012 1.796q-.004 1.874.022 3.747c.021 1.92 0 3.835-.026 5.754q.004 1.82.016 3.64l.013 3.355L399 531c1.986.81 1.986.81 4 1v2c-2.38.206-4.62.278-7 .25l-2.023.023c-1.662-.006-3.322-.13-4.977-.273v-2l1.887-.215L393 531c1.822-4.44 2.675-8.431 1-13-4.788-1.739-10.477-.698-15.424-.093L377 518v-1a60 60 0 0 1 3.754.36c6.701.773 6.701.773 13.246-.36 1.659-4.567.59-8.505-1-13z"/><path fill="#ecebeb" d="M712 501h13l-4 3c-.617 2.879-.617 2.879-.531 6.164l-.012 1.796q-.004 1.874.022 3.747c.021 1.92 0 3.835-.026 5.754q.004 1.82.016 3.64l.013 3.355L721 531c1.986.81 1.986.81 4 1v2c-2.38.206-4.62.278-7 .25l-2.023.023c-1.662-.006-3.322-.13-4.977-.273v-2l1.887-.184L715 531c1.825-4.778 2.667-9.1 1-14-4.747-1.862-10.493-.756-15.424-.109L699 517v-1c1.254.061 2.506.182 3.754.324 6.69.72 6.69.72 13.246-.324 1.658-4.2.566-7.88-1-12z"/><path fill="#fafaf8" d="M738 310c3 3.75 3 3.75 3 6a101 101 0 0 1-3 3c-1.649 2.061-3.036 4.066-4.32 6.375-1.767 2.76-3.59 4.604-6.055 6.75l-2.273 2.008C719.222 339 719.222 339 716 339c.575-3.822 2.288-5.762 4.875-8.562l2.117-2.317a91 91 0 0 1 3.766-3.773c1.468-1.288 1.468-1.288 1.242-3.348 1.172-1.078 1.172-1.078 2.75-2.25 3.227-2.561 5.126-5.237 7.25-8.75"/><path fill="#b0b0b0" d="m599 503 .438 1.938c.372 2.037.372 2.037 1.562 3.062l-.062 2.563L601 513h2c1.402 2.882 2 4.77 2 8-2.117-.094-2.117-.094-4.875-.5-2.726-.262-2.726-.262-5.125.5-1.626 3.572-1.861 7.107-2 11h3v2c-2.406.266-2.406.266-5.5.25l-3.094.016L585 534v-2l3-1a54 54 0 0 0 2.438-5.937q.647-1.78 1.296-3.56l.643-1.792c.883-2.425 1.843-4.818 2.81-7.211l.918-2.281L597 508z"/><path fill="#0d0d0d" d="M433 501h1c.428 3.368.536 6.642 0 10-2.437.875-2.437.875-5 1l-.375 1.941L428 516c-2.456 1.007-4.35 1.068-6.992 1.004L419 516c-1.486-4.574-1.52-8.433 0-13 3.42-1.593 6.483-1.202 10 0 1.824 2.066 1.824 2.066 3 4l.438-3z"/><path fill="#f5f5f5" d="M751 498c1.985-.71 1.985-.71 4 0 .486 1.56.486 1.56.46 3.719l-.01 2.324-.075 2.457-.004 2.457c-.067 4.408-.067 4.408-.371 6.043h-2l.98 1.121c1.843 3.396 1.324 7.37 1.383 11.164L756 530c2.476 1.296 2.476 1.296 5 2v2c-2.54.178-4.961.231-7.5.188l-2.168-.002A125 125 0 0 1 746 534v-1l2.478.416L751 533c.43-2.745.485-4.912.348-7.656l-.05-2.354a488 488 0 0 0-.236-7.49 584 584 0 0 1-.224-7.49q-.052-2.337-.163-4.674c-.05-2.123-.05-2.123.325-5.336"/><path fill="#f8f7f8" d="M820 509c.137 1.998.233 3.999.313 6 .356 5.575.89 10.658 4.687 15 2.079 1.36 4.091 2.373 6.39 3.309L833 534v1c-5.046.396-7.841.147-12-3-2.312-2.062-2.312-2.062-4-4v-2h-2c-.968-2.905-1.196-4.966-1.25-8l-.078-2.625c.393-2.842 1.096-3.642 3.328-5.375 2-1 2-1 3-1"/><path fill="#f9f8f8" d="M343 498h3c.189 2.392.176 4.546.047 6.93q-.065 2.173-.125 4.347c-.08 2.301-.172 4.6-.285 6.9-.103 2.21-.162 4.417-.215 6.628l-.138 2.09c-.114 2.167-.114 2.167.716 5.105 1.841.942 3.447 1.311 5.49 1.62l1.51.38v2c-1.56.259-1.56.259-3.719.266l-2.324.007-2.457-.023-2.457.023-2.324-.007-2.158-.007L336 534v-2l2.956-.675L342 530c.613-2.676.771-4.51.7-7.195.006-.708.012-1.415.02-2.144.017-2.263-.005-4.523-.033-6.786-.01-2.27-.014-4.538 0-6.807q.012-2.12-.025-4.24c0-1.922 0-1.922.338-4.828"/><path fill="#101010" d="M790 503c3.532-.623 5.598-.57 8.875.762 1.961 2.158 2.064 4.371 2.316 7.195-.275 2.938-1.411 4.225-3.476 6.23-2.817 1.335-4.678 1.442-7.715.813-.716-2.822-.887-4.66-.812-7.5l-.096-2.168c.013-2.05.013-2.05.908-5.332"/><path fill="#e7e7e5" d="M627.276 189.886h3.336l3.615.016 3.69.005q4.859.006 9.716.024 4.958.014 9.914.02 9.726.016 19.453.049l-1 2c-2.208.252-2.208.252-5.162.255l-3.337.021c-.591 0-1.183 0-1.793-.002q-2.766.001-5.532.03-7.866.068-15.732.077-4.807.01-9.613.065-1.837.015-3.676.007c-1.707-.007-3.415.012-5.122.033l-2.952.008L621 193c-.586 1.979-.586 1.979 0 4l2 1v1a53 53 0 0 0 3.937.281l2.461.114 2.602.105q2.532.102 5.062.219l2.286.092L641 200v1c-3.114.293-6.25.232-9.375.25l-2.695.062-2.578.016-2.38.028C622 201 622 201 620.744 199.591c-1.36-2.903-.98-5.424-.745-8.591 2.571-1.286 4.397-1.12 7.276-1.114"/><path fill="#c9c9c9" d="M476 517c1.995 1.33 2.885 2.446 3.375 4.805.178 2.94.25 5.236-1.395 7.758-1.293 1.312-1.293 1.312-3.98 3.437l-1.328 1.117c-2.4 1.267-4.413 1.148-7.11 1.133l-2.87.016c-2.8-.277-4.452-.556-6.692-2.266-.39-2.164-.39-2.164-.25-4.625l.11-2.477L456 524c3.88 3.75 3.88 3.75 4.813 5.688 1.806 1.996 3.845 2.008 6.433 2.394 2.243-.105 3.174-.478 4.754-2.082.171-2.356-.068-4.556-.285-6.906L472 521c2.004-1.156 2.004-1.156 4-2z"/><path fill="#d4d3d4" d="M646 501h12l-3 2a55 55 0 0 0-.477 7.195l-.047 2.144a708 708 0 0 0-.101 6.786q-.054 3.404-.123 6.807a480 480 0 0 0-.063 4.24c-.026 1.61-.102 3.22-.189 4.828h-1l-.75-3.187c-.771-2.96-1.673-4.512-3.937-6.563L646 523l1-3 3 3c.116-3.104.187-6.207.25-9.312l.102-2.67.039-2.569.063-2.364c-.347-2.686-.347-2.686-4.454-5.085m-5 17c2.125 1.875 2.125 1.875 4 4l-2 2c-1.765-2.316-2-2.913-2-6m2 0 3 1h-3z"/><path fill="#070707" d="M534 503c3.748-.73 5.7-.79 8.95 1.184 1.44 2.489 1.217 4.047.862 6.878l-.292 2.66C543 516 543 516 541 518c-2.71.734-4.11.5-7 0-.821-2.9-.986-4.578-.875-7.5l-.082-2.168c.027-2.05.027-2.05.957-5.332"/><path fill="#e5e5e0" d="m604 198 2 2a442 442 0 0 1-1.062 5.625c-.292 2.99-.292 2.99 1.062 5.375 4.382 1.316 9.214.523 13.707.207 4.363-.29 8.098.187 12.355 1.094 3.187.673 5.68 1.095 8.938.699 1.542-4.107.73-7.766 0-12h1c.717 4.48.935 8.543 0 13-2.502 1.78-5.13 1.35-8.106 1.129-3.118-.212-6.236-.249-9.36-.283a174 174 0 0 1-5.224-.144c-5.992-.138-10.29.957-15.31 4.298l-2 2c.508-3.761 1.204-5.458 4-8l-1-1c-.236-2.36-.421-4.697-.562-7.062l-.131-2.01q-.159-2.464-.307-4.928"/><path fill="#2d2d2d" d="m940 499 3 1h-2c-.016 1.613-.016 1.613.375 3.5l.336 1.969L942 507l1-2.5c2.183-2.728 2.754-3.087 6.078-3.562 2.158.068 2.158.068 3.922 1.062 1.086 4.133.977 8.14.823 12.39-.073 2.103-.082 4.198-.08 6.301q-.03 1.983-.071 3.965l-.014 1.922c-.077 1.76-.077 1.76-.658 4.422-2.031.752-2.031.752-4 0-.362-2.387-.362-2.387-.172-5.687l.085-1.75c.093-1.855.215-3.709.337-5.563q.102-1.879.2-3.758c.162-3.082.35-6.162.55-9.242-2.915 1.074-4.778 1.778-7 4h-3c-.293-2.187-.293-2.187-.187-5l.082-2.812z"/><path fill="#bababa" d="M781 501c3.166-.086 6.333-.14 9.5-.187l2.746-.077 2.598-.029 2.412-.048L800 501v3c-3 0-3 0-4.811-.48-2.072-.622-2.072-.622-5.189-.52-.575 2.822-.62 4.63-.375 7.438.14 2.52.262 5.04.375 7.562h-1c.008-3.228.081-6.443.215-9.668.081-2.258.081-2.258-.215-5.332h-3c-.475 2.625-.475 2.625-.398 5.906l-.01 1.816q-.002 1.907.017 3.814c.016 1.956 0 3.91-.02 5.866q.004 1.845.013 3.692l.01 3.427L786 530h3c.33-2.287.33-2.287.125-5-.07-1.666-.119-3.333-.125-5h1c.21 2.83.32 5.66.426 8.496L791 531c1.996.782 1.996.782 4 1v2c-2.38.206-4.62.278-7 .25l-2.023.023c-1.662-.006-3.322-.13-4.977-.273v-2l1.983.267L785 532c.35-2.25.396-4.024.277-6.273l-.063-1.937a292 292 0 0 0-.175-4.07 312 312 0 0 1-.225-6.236q-.077-1.973-.162-3.945l-.057-1.89c-.131-3.432-.131-3.432-2.136-6.058z"/><path fill="#f5f4f5" d="M415 505h1c.334 3.12.516 6.243.719 9.375L417 517h1c.215 2.151.378 4.28.5 6.438-.105 4.12-.105 4.12 1.5 7.562 6.035.873 6.035.873 11.48-1.117 1.161-1.529 1.161-1.529 2.52-3.883h2c.719 2.973.565 5.359-1 8-4.145 1.152-8.307.789-12.562.563q-1.8-.048-3.6-.084c-5.954-.175-5.954-.175-8.838-.479v-1l2.472.32L415 533c.486-2.266.56-3.848.453-6.125l-.029-1.883a332 332 0 0 0-.174-5.992q-.074-2.995-.132-5.992a295 295 0 0 0-.103-3.739A101 101 0 0 1 415 505"/><path fill="#e0e0e0" d="M544 507h1c.098 1.645.098 1.645.063 3.813l-.028 2.144L545 515v3h-2a1727 1727 0 0 0 4.875 6.938l1.395 1.998 1.347 1.904 1.238 1.761c1.112 1.553 1.112 1.553 3.145 2.399v2c-2.687.438-2.687.438-6 0-4.51-3.383-6.816-7.884-9.473-12.793-1.652-2.388-2.852-3.177-5.527-4.207l3.375-.187c1.919-.221 1.919-.221 3.625-.813 1.589-2.6 1.968-4.84 2.563-7.812z"/><path fill="#c5c4c5" d="M508 501h12l-3 2c-.472 1.662-.472 1.662-.441 3.563l-.076 2.151-.045 2.286a765 765 0 0 1-.208 4.637l-.107 2.27c-.33 5.624-.698 10.342-4.31 14.78-3.832 1.789-5.756 1.347-9.813.313v-1l3.313-.5c2.292-.664 3.391-1.099 4.82-3.035 2.084-5.251 2.192-10.76 2.305-16.34l.068-2.272-.01-2.158.006-1.937c-.487-2.377-.487-2.377-4.502-4.758"/><path fill="#cfcecf" d="M680 519c2 1.125 2 1.125 4 3 .611 3.056.619 4.98-1.023 7.688-2.25 2.836-3.455 4.138-6.977 5.312a65 65 0 0 1-4.5.188l-2.344.042c-2.392-.255-3.44-.55-5.156-2.23-.617-1.945-.617-1.945-.875-4.125l-.305-2.195.18-1.68h3c1.625 2.938 1.625 2.938 3 6 1.113 1.327 1.113 1.327 3.938 1.25 2.96.05 2.96.05 4.437-1.375.78-2.01.78-2.01.625-4.812 0-3.08.416-4.488 2-7.063m-5 2 3 1h-3z"/><path fill="#1f1f1f" d="M689 500a50.5 50.5 0 0 1 7.063-.25l2.01.016c1.643.027 3.286.124 4.927.234v1c-1.827.24-3.663.416-5.5.563l-3.094.253L692 502l2 1a63 63 0 0 1 .336 6.441l.02 1.947q.015 2.038.015 4.078c.004 2.092.04 4.182.078 6.274q.009 1.976.012 3.951l.043 1.913c-.018 1.75-.018 1.75-.504 4.396-2.025.743-2.025.743-4 0-.315-2.34-.315-2.34-.066-5.582l.106-1.727c.113-1.836.253-3.67.398-5.504.14-1.823.273-3.646.387-5.47.104-1.665.232-3.327.36-4.99-.218-3.207-.907-3.651-3.185-5.727z"/><path fill="#555554" d="M672 289h2c.24 1.898.24 1.898.227 4.59v3.033l-.032 3.315-.008 3.363q-.016 4.439-.05 8.877c-.02 3.016-.03 6.032-.04 9.049q-.033 8.886-.097 17.773l-7-2 1.968-.223L671 336c.612-1.983.612-1.983.514-4.428l.04-2.851-.015-3.1.036-3.157c.035-3.342.044-6.684.05-10.026q.022-5.019.072-10.038.03-3.13.027-6.26l.02-2.841.004-2.521z"/><path fill="#bdbdbd" d="M746 496c1.928-.227 1.928-.227 4.594-.195l2.87.02 3.036.05 3.035.027q3.733.036 7.465.098c-.865 2.003-.865 2.003-2 4-2.164-.047-2.164-.047-4.625-.75l-2.477-.672L756 498l.016 1.652q.029 3.675.047 7.348l.025 2.602.01 2.46.016 2.286L756 516h-1a56 56 0 0 1 .043-3.937l.064-2.461q.08-2.603.196-5.204l.052-2.46.083-2.286L755 498c-2.008-.963-2.008-.963-4 0-.3 2.67-.318 4.957-.18 7.621q.062 2.385.121 4.772.131 3.789.292 7.578c.096 2.425.156 4.849.212 7.275l.132 2.304c.04 2.124.04 2.124-.577 5.45-3.028 1.11-3.028 1.11-6 1v-2l1.969-.184L749 531c.413-2.496.537-4.56.496-7.062l.005-2.141a353 353 0 0 0-.034-4.49c-.03-2.298-.021-4.594-.008-6.893q-.01-2.175-.025-4.351l.008-2.096c-.006-2.123-.006-2.123-.442-4.967l-3-1z"/><path fill="#995901" d="M1034 545h1c.103 1.595.13 3.195.133 4.793l.006 3.083-.014 3.312-.008 3.318c-.12 20.5-.12 20.5-2.117 24.494h-2c-1.194-4.761-1.12-9.492-1.062-14.375l.013-2.23q.02-2.698.049-5.395l4 1-.016-1.652q-.029-3.675-.046-7.348l-.026-2.602-.01-2.46-.016-2.286z"/><path fill="#dfdfdf" d="m633 508 4 2 2 .75c2.96 1.85 4.194 4.283 6 7.25h-3l-2 2c-1.727-1.668-1.727-1.668-3.625-4.187l-1.914-2.481C633 511 633 511 633 508m10 11 3 1-1 3zm1 4c3.186.236 4.689 1.46 6.75 3.75 1.817 2.3 2.234 3.107 2.563 6.125L653 535c-3.266-3.175-6.312-6.316-9-10z"/><path fill="#f7f6f7" d="M954 502h2c.181 2.057.228 3.996.203 6.055q.015 1.9.035 3.8c.01 2.011.012 4.02-.008 6.031a262 262 0 0 0 .036 5.794l-.047 1.824c-.021 1.907-.021 1.907.781 4.496 2.98 1.333 2.98 1.333 6 2v2a81 81 0 0 1-7.5.25l-2.168.023c-1.78-.006-3.558-.13-5.332-.273v-2l2.46-.73L953 530c.523-2.329.676-3.983.637-6.32l.031-1.875c.03-1.977.026-3.953.02-5.93q.011-2.976.051-5.951.023-1.854.01-3.706c.011-1.68.011-1.68.251-4.218"/><path fill="#161616" d="M524 501c2.46.591 2.46.591 5 2 .525 2.405.68 4.127.629 6.54l.007 1.941a230 230 0 0 1-.04 4.06c-.034 2.084-.02 4.164 0 6.248a885 885 0 0 1-.03 3.938l.015 1.903c-.048 1.74-.048 1.74-.581 4.37-2.03.759-2.03.759-4 0-.33-2.463-.33-2.463-.102-5.871l.1-1.809c.106-1.92.24-3.839.377-5.758q.191-2.872.356-5.746c.1-1.742.22-3.483.34-5.224L526 505l-2-1z"/><path fill="#c9c8c8" d="M934 502c.46 1.848.46 1.848.375 4.063l-.04 2.222L934 510h-2l-.312-1.875c-.493-2.315-.493-2.315-2.75-3.375-3.744-.956-7.104-1.388-10.938-.75-3.457 2.151-5.724 4.646-8 8l-1-2-3 1c1.862-4.74 5.109-7.1 9.625-9.25 5.494-1.221 13.071-2.083 18.375.25"/><path fill="#e0e0e0" d="M839.25 502.188c3.114 2.052 5.341 3.965 7.75 6.812l-1 2-3-1-2 1a197 197 0 0 1-3-5c-3.016-2.614-6.01-2.407-9.844-2.32-2.356.182-2.356.182-4.593 2.07-1.414 2.035-2.587 3.974-3.563 6.25l-1-2-3 1c1.528-4.125 4.45-6.57 8-9 5.177-1.726 10.123-1.686 15.25.188"/><path fill="#f5f4f4" d="M786 503h3c.299 3.225.337 6.346.264 9.58-.022 2.283-.022 2.283.736 5.42 2.986 1.035 2.986 1.035 6 1v1l-1.531-.254c-2.793-.447-2.793-.447-5.469.254-.438 2.707-.24 5.09.047 7.813L789 530h-3c-.388-2.479-.388-2.479-.398-5.906l-.01-1.816q-.002-1.907.017-3.814c.016-1.956 0-3.91-.02-5.866q.004-1.845.013-3.692l.01-3.427z"/><path fill="#0e0e0e" d="M414 503c.141 2.125.213 4.216.238 6.344l.025 1.95q.02 2.048.032 4.096c.017 2.101.061 4.2.105 6.301q.015 1.983.026 3.965l.053 1.922c-.009 1.76-.009 1.76-.479 4.422-2.011.777-2.011.777-4 0-.338-2.193-.372-3.9-.242-6.09l.07-1.876q.08-1.971.188-3.942c.108-2.017.185-4.033.257-6.051q.084-1.91.172-3.818l.073-1.84c.086-1.468.275-2.928.482-4.383 2-1 2-1 3-1"/><path fill="#222" d="M721 503c1.553.588 1.553.588 3 2 .28 2.49.28 2.49.145 5.594l-.14 3.37-.096 1.758c-.096 1.77-.166 3.541-.231 5.313-.408 8.695-.408 8.695-2.678 10.965-1.803-1.803-1.13-4.54-1.133-6.969l-.003-1.804q0-1.892.006-3.783c.005-1.936 0-3.871-.007-5.807q0-1.835.004-3.668l.004-3.393C720 504 720 504 721 503"/><path fill="#c5c4c5" d="m469.563 495.875 1.826-.012c4.484.01 4.484.01 5.611 1.137.168 1.848.168 1.848.188 4.063l.042 2.222L477 505h-2a264 264 0 0 1-3-5c-2.763-1.381-4.947-1.19-8-1-2.36 2.36-2.491 3.779-3 7l-.375-2-.625-2h-2c-.434 1.59-.434 1.59-.562 3.5-.114 1.17-.251 2.34-.438 3.5h-1c-.42-2.941-.548-5.11 1.047-7.7 3.889-4.723 6.424-5.464 12.515-5.425"/><path fill="#e6e6e2" d="m578 194 2 1c-2.333 4.667-2.333 4.667-5 6l.25 1.813C575 205 575 205 573.707 206.082a85 85 0 0 1-3.297 1.988c-1.595.883-1.595.883-2.41 2.93-2.187-.062-2.187-.062-4-1 1.11-3.96 2.947-6.307 5.875-9.125l2.055-2.008c1.964-1.772 3.84-3.44 6.07-4.867m-5 7 1 2Z"/><path fill="#1d1d1d" d="m631 509 3.73 3.741c1.01 1 2.042 1.978 3.082 2.947C639 517 639 517 639 519l-5-1 .035 1.793c.048 4.21.025 8.1-1.035 12.207l-2-1c-.227-2.133-.227-2.133-.195-4.91l.02-2.998.05-3.154.027-3.167q.036-3.885.098-7.771"/><path fill="#c3c3c3" d="M694 504h1c.052 1.895.035 3.792-.008 5.688l-.05 3.554a703 703 0 0 1-.113 5.65 459 459 0 0 0-.087 5.42l-.067 3.301L695 530h3c.33-2.746.33-2.746.125-6-.07-2-.119-4-.125-6h1c-.077 3.013-.182 6.016-.39 9.023-.127 2.114-.127 2.114.39 4.977 2.51.417 2.51.417 5 0v2c-2.38.206-4.62.278-7 .25l-2.023.023c-1.662-.006-3.322-.13-4.977-.273v-2l1.978.258L694 532c.374-2.196.44-3.924.355-6.125l-.024-1.883a413 413 0 0 0-.144-5.992q-.063-2.995-.111-5.992a329 329 0 0 0-.087-3.739A100 100 0 0 1 694 504"/><path fill="#fbf9fa" d="M854 501c2.178-.075 4.323-.092 6.5-.062l1.879.013q2.31.02 4.621.049l-1.966 1.142c-2.274 1.708-2.274 1.708-2.548 4.478l-.025 3.107-.07 3.375q-.01 1.761-.016 3.523a747 747 0 0 1-.102 6.914l-.018 3.1L862 529l-2 1 .095-2.355q.151-4.32.235-8.644.044-1.871.123-3.742c.072-1.792.106-3.582.133-5.376l.095-3.27L860 504c-2.966-1.38-2.966-1.38-6-2z"/><path fill="#767676" d="M873 500c2.095-.356 2.095-.356 4.996-.328l3.131.015 3.31.063 3.3.016c8.11.08 8.11.08 9.263 1.234a59 59 0 0 1 .063 4.063l-.028 2.222L897 509l-3-1-.371-1.965L893 504c-3.34-1.559-6.477-2.258-10-1-.771 3.51-.583 6.567-.254 10.121L883 516h-1c.111-3.013.232-6.018.479-9.023.148-2.119.148-2.119-.479-4.977-3.475-.614-5.667-.111-9 1z"/><path fill="#ddd" d="M719 504h1c.113 1.955.156 3.913.176 5.871l.072 3.678c.035 1.947.065 3.893.078 5.84.015 1.87.055 3.738.1 5.607l.044 3.412L721 531c1.987.819 1.987.819 4 1v2c-2.38.206-4.62.278-7 .25l-2.023.023c-1.662-.006-3.322-.13-4.977-.273v-2l1.957-.215L715 531c.453-2.32.65-4.23.688-6.562.074-2.15.178-4.29.312-6.438h1c.24 1.994.416 3.997.563 6l.253 3.375L718 530l.076-2.387q.143-4.36.296-8.721.066-1.891.125-3.784.088-2.71.187-5.42l.11-3.301z"/><path fill="#bfbfbf" d="M529 504h1c.163 1.965.253 3.936.316 5.906l.063 1.816q.098 2.889.183 5.778l.131 3.902q.161 4.8.307 9.598c2.046-2.046 1.501-6.075 1.719-8.848L533 520h1c.21 2.83.32 5.66.426 8.496L535 531c1.996.782 1.996.782 4 1v2c-2.38.206-4.62.278-7 .25l-2.023.023c-1.662-.006-3.322-.13-4.977-.273v-2l1.978.258L529 532c.374-2.196.44-3.924.355-6.125l-.024-1.883a413 413 0 0 0-.144-5.992q-.063-2.995-.111-5.992a329 329 0 0 0-.087-3.739A100 100 0 0 1 529 504"/><path fill="#e2e2e2" d="M799 522h3c1.754 2.152 1.754 2.152 3.563 4.938 2.17 3.635 2.17 3.635 5.437 6.062v2c-2.625.563-2.625.563-6 0-3.36-2.75-5.592-5.75-6.937-9.875L798 523z"/><path fill="#b5b4b5" d="M485 501h13l-3 2c-.49 2.024-.49 2.024-.477 4.352l-.093 2.578-.055 2.695q-.075 2.644-.164 5.29l-.053 2.373L494 522h-1a61 61 0 0 1 .008-4.156l.05-2.598q.067-2.746.157-5.492l.043-2.598.067-2.412L493 503h-3c-.327 2.535-.327 2.535-.074 5.688l.08 1.748c.088 1.856.197 3.71.307 5.564q.095 1.879.185 3.758.23 4.622.502 9.242c-2-2-2-2-2.164-4.398l.11-2.977.074-3.234q.105-3.391.234-6.782l.066-3.234.102-2.977L489 503z"/><path fill="#faf9fa" d="M751 498c1.984-.67 1.984-.67 4 0 .486 1.56.486 1.56.46 3.719l-.01 2.324-.075 2.457-.004 2.457c-.067 4.408-.067 4.408-.371 6.043h-2a94 94 0 0 0-.062 7.5c.06 2.505.083 4.994.062 7.5h-1a141 141 0 0 1-.457-7l-.092-2.152q-.09-2.26-.173-4.52c-.09-2.319-.206-4.635-.323-6.953a1897 1897 0 0 1-.162-4.375l-.12-2.121c-.051-1.942-.051-1.942.327-4.879"/><path fill="#f9f9f7" d="M703.172 238.348 705 239v3c1.95 1.225 1.95 1.225 4 2-1.748.223-3.499.428-5.25.625l-2.953.352c-2.976.024-4.229-.625-6.797-1.977-2.268 1.284-2.268 1.284-4 3 2.984-6.963 5.842-8.515 13.172-7.652"/><path fill="#734300" d="M258 558h1c.136 1.727.232 3.457.313 5.188.275 4.585.275 4.585 2.812 8.312 2.782 3.71 1.821 6.825 1.234 11.27L263 585c-1.953-.703-1.953-.703-4-2-.61-2.11-.61-2.11-.75-4.75l-.164-2.941c-.095-3.666-.183-7.33-.211-10.996l-.015-1.892c.006-1.474.067-2.948.14-4.421"/><path fill="#fdfdfd" d="M359 494h2c.52 2.406.52 2.406.813 5.5l.332 3.094L362 505h-3a88 88 0 0 1-1-5l-2-1v-2c-2.535-.266-2.535-.266-5.687-.16l-1.75.016c-1.854.018-3.708.049-5.563.082q-2.783.042-5.564.07-2.524.03-5.05.074L330 497v-1c2.039-.151 4.048-.236 6.09-.281l1.876-.056q2.985-.088 5.971-.163 3.92-.101 7.84-.219l1.84-.04c2.96.127 2.96.127 5.383-1.241"/><path fill="#d7d7d7" d="M843 516h1c.228 1.788.45 3.577.621 5.371L845 523l2 1c-.926 4.168-3.083 6.455-6.344 8.988-2.523 1.542-4.727 1.945-7.656 2.012l-2-2 1.68-.262c4.528-.742 4.528-.742 7.695-3.738.762-3.656 1.51-7.311 2.16-10.988z"/><path fill="#272727" d="M882 518c2.736-1.423 5.115-.823 8 0l2 1v3l2 1h-3v-3c-3.128-.576-3.128-.576-6 1-.042 2.74.397 5.169.96 7.848L886 531c-1.914.715-1.914.715-4 0-.56-2.368-.76-4.11-.75-6.5l-.003-1.848c.089-1.754.089-1.754.753-4.652"/><path fill="#a6a6a6" d="M575 501h10l-2.125 2.313c-3.228 3.786-5.221 8.118-7.348 12.59L574 518c-2.184-.059-2.184-.059-4-1v-2h3c1.006-1.878 1.006-1.878 1.625-4.25l.727-2.39L576 506c.235-.737.47-1.475.71-2.234L577 502z"/><path fill="#cacac6" d="M692 341c3.821-.216 6.36-.213 10 1v2l2 2-2.152.2c-3.108.544-5.212 1.037-7.848 2.8-.972 3.533-1.096 6.624-1.035 10.262L693 362h-1a166 166 0 0 1-.187-7.937l-.038-2.288-.005-2.177-.013-2.016L692 346l2-1-2-2z"/><path fill="#d0cfd0" d="M572 518h1c.173 2.765.298 5.521.342 8.291.051 1.977.051 1.977.658 4.709 1.987.863 1.987.863 4 1v2a89 89 0 0 1-7.5.125l-2.168-.027A659 659 0 0 1 563 534l1.957-1.113c2.318-1.769 2.318-1.769 2.617-4.805l.114-3.27c.08-1.938.177-3.876.312-5.812h1c.294 2.829.45 5.658.621 8.496L570 530l2 1-.035-2.844-.028-3.656-.025-1.879c-.008-1.54.035-3.081.088-4.621"/><path fill="#784500" d="M1004 461h3c1.149 3.447 1.258 6.598 1.313 10.188l.087 1.982c.026 1.873.026 1.873-.4 4.83-2.035.707-2.035.707-4 0-.172-1.969-.172-1.969.25-4.5l.39-2.531c.12-.65.238-1.3.36-1.969a106 106 0 0 1-1 5h-1c-.101-1.977-.13-3.958-.125-5.937l-.008-3.34C1003 462 1003 462 1004 461m2 9c-.167 2.5-.167 2.5 0 5h1c.167-2.5.167-2.5 0-5z"/><path fill="#f7f6f7" d="M530 505h1q-.177 2.288-.37 4.573c-.21 2.993-.195 5.456.37 8.427 2.998 1.575 5.694 1.236 9 1v1l-1.531-.254c-2.791-.44-2.791-.44-5.469.254-.484 2.638-.305 4.952-.05 7.617L533 530l-2 2c-1.78-1.78-1.13-4.38-1.133-6.785l-.003-1.745q0-1.827.006-3.654c.005-1.874 0-3.748-.007-5.623q0-1.77.004-3.54l.004-3.282z"/><path fill="#c6c6c6" d="m675.063 500.813 2.66.019C680 501 680 501 682 502c.394 2.418.18 4.53 0 7h-2l-.687-1.937c-1.08-2.183-1.08-2.183-2.961-2.586-2.16-.358-2.16-.358-5.352-.477-1.188.956-1.188.956-1.027 2.629l.09 1.933L670 512h-2c-.52-1.898-.52-1.898-.812-4.375l-.333-2.46C667 503 667 503 668.172 501.722c2.385-.943 4.33-.952 6.89-.91"/><path fill="#dbdbdb" d="M546 524c1.382 1.283 2.703 2.631 4 4l1.375 1.313c1.247 1.19 2.44 2.436 3.625 3.687v2c-2.868.467-5 .612-7.547-.945-1.39-1.242-1.39-1.242-3.453-4.055.19-4.19.19-4.19 2-6"/><path fill="#e1e0e1" d="M394 518c2 2 2 2 2.195 4.82l-.07 3.305-.055 3.32L396 532l3-1c2.188.313 2.188.313 4 1v2c-2.38.206-4.62.278-7 .25l-2.023.023c-1.662-.006-3.322-.13-4.977-.273v-2c.645-.07 1.29-.142 1.953-.215L393 531a34 34 0 0 0 .75-6.562l.09-1.866c.07-1.523.118-3.048.16-4.572"/><path fill="#f6f5f6" d="M542 502c4.75.875 4.75.875 7 2 .266 1.96.266 1.96.25 4.375l.016 2.398c-.281 2.355-.567 3.562-2.266 5.227l-3-1c-.223-1.672-.223-1.672-.062-3.75.147-3.568-.315-6.004-1.938-9.25"/><path fill="#4c4b4c" d="M625 503c1.971.696 1.971.696 4 2 .486 2.183.486 2.183.46 4.867l-.01 2.934-.075 3.074-.004 3.05c-.098 8.176-.098 8.176-2.371 12.075.01-.757.02-1.515.032-2.295q.05-4.192.078-8.386.015-1.819.04-3.638c.025-1.737.035-3.475.045-5.212l.032-3.174L627 506h-2z"/><path fill="silver" d="M600 501c1.938-.312 1.938-.312 4 1 .71 1.722 1.128 3.388 1.508 5.21.394 1.845.394 1.845 1.61 3.33L608 512l-1 3-.187-2.125L606 511c-2.605.675-2.605.675-5 2l.125-2.437L601 508l-2-1c.125-3.125.125-3.125 1-6"/><path fill="#dad9d9" d="M764 497c6.449.608 6.449.608 8.715 2.219 1.739 2.41 1.62 4.027 1.535 6.969-.015.9-.03 1.802-.047 2.73L774 511h-1l-.437-2.937L772 505l-2-1-.437 2.5L769 509h-1c-.265-1.724-.526-3.45-.754-5.18-.272-2.01-.581-3.9-1.246-5.82z"/><path fill="#b6b6b0" d="M752 280h1c.913 10.065-1.199 18.76-5 28-1.125-1.187-1.125-1.187-2-3a88 88 0 0 1 2-5q.297-1.837.5-3.687C749 293 749 293 751 291c.425-2.664.425-2.664.563-5.625.112-1.794.249-3.587.437-5.375"/><path fill="#b8b8b0" d="m567 239 2 1-1.937.313L565 241l-1 3c-2.562-.312-2.562-.312-5-1l1 3-1.531.148-1.969.227-1.969.21L553 247v2c2.281.435 2.281.435 5 .563 1.67.113 3.337.25 5 .437v1c-2.66.309-2.66.309-6.062.438l-3.41.183L551 251c-.238-2.852-.238-2.852 1-6 2.617-1.645 2.617-1.645 5.875-2.812l3.242-1.208q2.94-.999 5.883-1.98"/><path fill="#f4f3f4" d="M604 511h2c2.542 3.588 2.575 7.75 3 12l-15-1 1-3v2c2.289.246 2.289.246 5 .125l2.813-.055L605 521l-.988-1.832c-1.198-2.567-1.24-4.366-1.012-7.168z"/><path fill="#b1b0b0" d="M815 511c1.14 3.827.959 7.222.742 11.172L816 524h3l-2 4v-2h-2c-.988-2.963-1.134-4.971-1.125-8.062l-.008-2.66C814 513 814 513 815 511m4 3h1c.56 2.689.97 5.393 1.402 8.105.583 2.821 1.447 5.261 2.598 7.895-1.937-.75-1.937-.75-4-2-1.09-3.072-1.134-6.013-1.125-9.25l-.008-2.703z"/><path fill="#212121" d="m600 510 1 3h2c1.046 2.303 1.604 4.516 1 7-2.696.727-5.259.378-8 0 1.714-7.714 1.714-7.714 4-10"/><path fill="#633a00" d="M1031 461h3c1.98 6.351 2.382 13.382 2 20h-1a141 141 0 0 1-1.062-6.5l-.276-1.879q-.336-2.31-.662-4.621c-1.706 2.245-2.287 3.892-2.562 6.688L1030 478h-1c-.306-5.618-.272-11.75 2-17"/><path fill="#fefefd" d="M740 257h2v3l2 1v2l2 2v4l2 1c-2 .125-2 .125-4 0v-2l-3.062-.812L738 266c.063-2.375.063-2.375 1-5l.438-2.312z"/><path fill="#eaeaea" d="M353 532v2c-1.56.259-1.56.259-3.719.266l-2.324.007-2.457-.023-2.457.023-2.324-.007-2.158-.007L336 534v-2c5.99-3.776 10.69-3.11 17 0"/><path fill="#f6f5f5" d="M368 501h13l-4 3c-.625 2.96-.625 2.96-.625 6.188-.102 3.292-.102 3.292-.375 5.812h-2c-.288-2.738-.316-5.452-.363-8.203-.5-3.539-.5-3.539-5.637-6.797"/><path fill="#272622" d="m595 228 1 2c-.89 1.727-.89 1.727-2.25 3.625l-1.328 1.914L591 237h-3l-.875 1.938L586 241c-2.625.75-2.625.75-5 1 1.19-3.572 2.33-4.246 5.313-6.437 3.156-2.333 5.966-4.73 8.687-7.563m-9 13v3Z"/><path fill="#b8b8b8" d="M651 507h1c.09 1.383.107 2.77.098 4.156l-.01 2.598-.025 2.746-.014 2.746q-.018 3.377-.049 6.754c-2.45-.867-2.45-.867-5-2-.812-2.125-.812-2.125-1-4l4 3 .076-1.469c.115-2.177.238-4.354.361-6.531l.12-2.312.127-2.188.11-2.031zm-10 11c2.125 1.875 2.125 1.875 4 4l-2 2c-1.765-2.316-2-2.913-2-6m2 0 3 1h-3z"/><path fill="#fcfbfb" d="M396 508h1c.429 3.984.518 7.998.688 12l.181 3.469.143 3.281.14 3.047L398 532h-2c.119-1.66.24-3.321.383-4.98.208-3.589.077-5.648-1.383-9.02-5.111-1.832-11.089-.774-16.364-.109L377 518v-1c1.545-.19 1.545-.19 3.684-.281l2.31-.114 2.443-.105q2.374-.103 4.747-.219l2.142-.092c1.71-.017 1.71-.017 2.674-1.189.204-1.182.365-2.371.5-3.562z"/><path fill="#c3c3c3" d="M631 501c3.317 3.138 5.799 5.945 8 10l-6-3-1 2c-.68-3.062-1.116-5.861-1-9m-1 8h1c.103 1.31.13 2.624.133 3.938l.004 2.46-.012 2.602.012 2.602-.004 2.46-.004 2.286L631 527h-1a51 51 0 0 1-.133-3.937l-.004-2.461.012-2.602-.012-2.602.004-2.46.004-2.286z"/><path fill="#dad9d1" d="M641 201h1c.716 4.475.972 8.555 0 13-3.144 1.987-6.412 1.345-10 1q-1.779-.094-3.559-.172c-3.163-.168-6.302-.385-9.441-.828v-1c7.123-1.733 14.88-1.622 22 0l-.035-2.625-.028-3.375-.035-3.375z"/><path fill="#d5d5d5" d="M789 520h1c.21 2.83.32 5.66.426 8.496L791 531c1.996.782 1.996.782 4 1v2c-2.38.206-4.62.278-7 .25l-2.023.023c-1.662-.006-3.322-.13-4.977-.273v-2c2.882-1.402 4.77-2 8-2 .33-2.287.33-2.287.125-5-.07-1.666-.119-3.333-.125-5"/><path fill="#995900" d="M1005 468c1.186 2.373.912 3.04.375 5.563L1005 477l3 1c-.742 1.978-1.497 3.497-3 5-.32 2.35-.512 4.703-.719 7.066L1004 492h-1c-.267-2.863-.185-5.75-.187-8.625l-.038-2.45c-.011-4.76.418-8.51 2.225-12.925m1 2h1c.125 2.5.125 2.5 0 5h-1c-.125-2.5-.125-2.5 0-5"/><path fill="#fbfbfb" d="M897 526h2c.719 2.973.565 5.359-1 8-4.145 1.152-8.307.789-12.562.563q-1.8-.048-3.6-.084c-5.954-.175-5.954-.175-8.838-.479v-1a75 75 0 0 1 4.488-.105l2.83-.045a303 303 0 0 1 5.953-.016c2.704-.061 5.11-.155 7.729-.834 1.763-1.933 2.175-3.456 3-6"/><path fill="#f3f1f2" d="M643 520h3l-1 3zm1 3c3.186.236 4.689 1.46 6.75 3.75 1.817 2.3 2.234 3.107 2.563 6.125L653 535c-3.266-3.175-6.312-6.316-9-10z"/><path fill="#f7f6f7" d="m569 515 1 2 3 1c.058 2.298-.043 4.3-.312 6.563l-.186 1.865c-.154 1.525-.326 3.049-.502 4.572l-3-1a51.5 51.5 0 0 1-.75-7l-.129-1.984c-.093-1.67-.113-3.344-.121-5.016z"/><path fill="#151511" d="m580 190 3 2-2.16 1.469c-6.13 4.258-11.211 8.591-15.84 14.531l-1-3c1.355-2.346 3.335-4.22 5.188-6.187l1.501-1.694 1.479-1.6 1.352-1.465C575 193 575 193 577.115 193.03L579 193z"/><path fill="#e3e3e3" d="M663 525h3c.727 1.454 1.447 2.912 2.105 4.398 1.45 2.596 3.485 3.908 5.895 5.602-6.456.244-6.456.244-8.676-.75-1.795-1.695-1.912-2.95-2.199-5.375l-.305-2.195z"/><path fill="#e8e8e8" d="M767 512c2 2 2 2 2 5-3.233 1.078-6.32 1.488-9.687 1.813l-1.838.232c-1.737.162-1.737.162-4.475-.045-.656-1.984-.656-1.984 0-4 1.793-.285 1.793-.285 4.188-.062 4.26.22 6.227-.548 9.812-2.938"/><path fill="#e2e1e1" d="m495 527 2.063 1.875c3.076 2.493 6.115 3.226 9.937 4.125l-1 2c-4.117.643-7.875.604-11.562-1.375C493 532 493 532 493 530h2z"/><path fill="#f0eff0" d="M798 502c4.502.592 4.502.592 6.375 2.125 1.064 3.191.409 5.62-.375 8.875l-3 1c-.695-2.02-.695-2.02-1.125-4.812-.55-3.718-.55-3.718-1.875-7.188"/><path fill="#874e00" d="M288 461h2c1.753 6.491 2.387 13.299 2 20h-1l-.375-3.375c-.198-1.923-.198-1.923-.625-3.625l-1.562-1-1.438-1c-.277-3.744-.418-7.455 1-11"/><path fill="#f3f2f2" d="M466 513c1.563 1.438 1.563 1.438 3 3l-3 1-1-3zm4 1c2.438.563 2.438.563 5 2 1.313 2.125 1.313 2.125 2 4-2.875.75-2.875.75-6 1-1.437-1.75-1.437-1.75-2-4z"/><path fill="#c1c0c1" d="M328 494h3v2c2.511.435 2.511.435 5.5.563 1.836.113 3.67.25 5.5.437v1c-1.437.081-2.874.14-4.312.188-3.381.203-3.381.203-5.883 2.21-.671 1.505-1.245 3.053-1.805 4.602h-2c-.3-2.406-.3-2.406-.312-5.5l-.051-3.094z"/><path fill="#efefeb" d="m698 243 2 1Zm-2 1 3 1-3 2zm-2 2 2 2q-1.805 1.652-3.621 3.293c-2.304 2.852-2.92 6.19-3.8 9.695L688 263h-1c-.845-2.703-1.27-4.238-1-7 2.11-3.816 4.93-6.93 8-10"/><path fill="#f5f4f4" d="M668 504c-.01 2.057-.135 4.099-.258 6.152L668 512l3 1-2 2c-3.536-.536-3.536-.536-5-2-.334-4.597-.334-4.597 0-7 1.365-1.365 2.055-2 4-2"/><path fill="#d8d8d8" d="M933 526h2c-.144 3.244-.492 5.344-2.5 7.938-3.819 1.622-7.51.983-11.5.062v-1a98 98 0 0 1 3.75-.75c4.437-1.02 5.735-2.574 8.25-6.25"/><path fill="#7b4700" d="M290 570h2c.837 4.847-.006 9.57-2 14h-2c-.484-1.969-.484-1.969-.75-4.5l-.297-2.531L287 575h2l.5-2.5z"/><path fill="#d6d6d6" d="M832 502v1l-3.312.875c-3.016.827-4.79 1.527-6.688 4.125-1.176 2.1-1.176 2.1-2 4l-1-2-3 1c1.528-4.125 4.45-6.57 8-9 3.285-1.095 4.727-.885 8 0"/><path fill="#cbcacb" d="M918 502v2a523 523 0 0 1-5 4c-1.763 2.126-1.763 2.126-3 4l-1-2-3 1c2.038-5.187 6.355-9 12-9"/><path fill="#d1d1cd" d="M677 265c1.921 3.515 2.359 5.962 2 10l-2 1a82 82 0 0 0-1.062 6.563c-.274 2.157-.583 4.29-.938 6.437h-1c-.984-8.209 1.085-16.09 3-24"/><path fill="#c9c8c2" d="M741 255c4.53 3.901 7.329 8.204 9 14l-1 3c-3.14-3.56-4.674-6.36-6-11a366 366 0 0 0-1.125-3.375z"/><path fill="#252525" d="m464 498 2 1-1.75 1.125L463 502c1.9 3.51 4.025 6.323 7 9l-3 1c-2.664-1.522-4.537-2.77-5.648-5.723-.561-2.934-.702-4.744.96-7.277z"/><path fill="#212121" d="M348 498h1c.053 2.259.04 4.489-.008 6.746l-.05 4.225a984 984 0 0 1-.113 6.709 644 644 0 0 0-.087 6.441l-.056 2.04c-.048 2.064-.048 2.064.314 4.839l3 1-1 2-3-1c-.286-2.52-.372-4.795-.328-7.316l.006-2.216q.01-2.32.04-4.643c.032-2.381.042-4.762.048-7.143q.014-2.25.03-4.498l.014-2.178A129 129 0 0 1 348 498"/><path fill="#f2f1f1" d="m818 526 2.012 1.242 2.676 1.633 2.636 1.617c2.644 1.567 2.644 1.567 5.508 2.64L833 534v1c-6.048.474-9.078-.582-13.812-4.5C818 529 818 529 818 526"/><path fill="#4d4d4d" d="M768 518c-1.479 1.479-2.884 1.292-4.937 1.5-2.38.242-3.91.423-6.063 1.5-.244 2.364-.244 2.364-.125 5.063l.055 2.785L757 531l-2-1c-.894-4.13-1.195-7.921 0-12 4.084-1.798 8.96-2.02 13 0"/><path fill="#e8e8e5" d="M616 308c2.276 2.13 3.936 4.282 5.563 6.938l1.253 2.027L624 319l1.277 2.129L626 323l-2 2a686 686 0 0 1-4.562-6.812l-1.327-1.948-1.24-1.885-1.158-1.73C615 311 615 311 616 308"/><path fill="#1e1e1b" d="m685 245 2 1c-1.047 2.11-1.047 2.11-2.75 4.75-2.144 3.346-3.88 6.515-5.25 10.25-1.125-1.187-1.125-1.187-2-3 1.388-4.793 4.01-9.878 8-13"/><path fill="#161616" d="M790 520c2.563.313 2.563.313 5 1l-1 3a61 61 0 0 0 .125 3.625L794 531l-3 1c-1-1-1-1-1.098-3.504l.035-3.058.028-3.067z"/><path fill="#040404" d="M883 505h2c-.05 2.004-.05 2.004-.312 4.563-.177 2.42-.177 2.42.312 4.437 2.492.603 4.625-.17 7-1l-1 3c-2.18.802-3.931.877-6.246.836L883 516c-.9-3.709-.74-7.266 0-11"/><path fill="#e8e7e4" d="M744 308h3c-1.596 3.49-3.686 6.535-5.937 9.625l-1.053 1.484c-1.77 2.44-3.323 4.459-6.01 5.891 1.497-4.49 3.834-8.478 7-12h2l.438-2.5z"/><path fill="#030303" d="M586 187c2.082-.398 2.082-.398 4.813-.375l2.707-.023c2.845.457 3.715 1.182 5.48 3.398-3.134 1.045-4.936 1.031-8.187.75l-2.731-.203L586 190z"/><path fill="#e3e3e3" d="M590 527h2l-.125 2.5.125 2.5c2 .25 2 .25 4 0v2c-2.406.266-2.406.266-5.5.25l-3.094.016L585 534v-2l3-1q1.025-1.987 2-4"/><path fill="#c0bfbf" d="M476 517c1.5 1 1.5 1 3 3a33 33 0 0 1 0 8h-1a150 150 0 0 1-1-6l-.621 1.75-.817 2.25-.808 2.25L474 530h-1c-.457-1.898-.457-1.898-.812-4.375l-.395-2.46L472 521c1.988-1.164 1.988-1.164 4-2z"/><path fill="#f1f1f1" d="M690 501h13l-4 3c-.652 2.034-.652 2.034-.687 4.188A88 88 0 0 1 698 512h-1c-.39-1.688-.775-3.378-1.11-5.078-1.063-2.67-1.063-2.67-5.89-5.922"/><path fill="#fdfdfc" d="m584 192 2.063.375L587 194c-1.562 2.625-1.562 2.625-4 5-2.25.188-2.25.188-4 0v2c-1.937.75-1.937.75-4 1l-1-2a259 259 0 0 1 5-3 84 84 0 0 0 2.625-2.812z"/><path fill="#b8b7b7" d="M512 521h1c.809 3.003 1.16 5.894 1 9-2 2.625-2 2.625-5 4-2.58.058-4.455-.351-7-1v-1l3.313-.5c1.971-.41 1.971-.41 3.687-1.5 1.204-2.339 1.857-4.553 2.492-7.102z"/><path fill="#d2d1d1" d="M434 526h2c.54 2.222.443 4.018.156 6.281L435 534c-4.457.516-8.625-.07-13-1v-1c1.248-.11 2.499-.186 3.75-.25 3.56-.371 4.042-.526 6.625-3.312z"/><path fill="#ededeb" d="M584 235h2c-1.293 2.884-2.66 4.872-5 7l2.375.375C586 243 586 243 588 245a168 168 0 0 1-3.875-.312l-2.18-.176C580 244 580 244 578.598 242.622L578 241c1.637-1.859 3.146-3.405 5-5z"/><path fill="#b4b4b4" d="M429 512h2c.266 2.188.266 2.188.25 5l.016 2.813L431 522h-2l-.625-1.937c-1.154-2.24-1.154-2.24-3.281-2.516q-2.203-.234-4.414-.371L419 517v-1c2.308-.252 4.616-.386 6.934-.523L428 515z"/><path fill="#faf8f9" d="M910 509c-.016 2.117-.016 2.117-.25 4.875l-.203 2.742C909 519 909 519 907.453 520.32L906 521q-.118-2.437-.187-4.875l-.106-2.742C906 511 906 511 907.449 509.68 909 509 909 509 910 509"/><path fill="#e1e1e1" d="M963 532v2a81 81 0 0 1-7.5.25l-2.168.023c-1.78-.006-3.558-.13-5.332-.273v-2c4.881-1.377 10.08-1.257 15 0"/><path fill="#eae9e9" d="M609 530c1.668.324 3.335.66 5 1l2.313.438L618 532v2a67 67 0 0 1-6.5.125l-1.879-.027c-1.54-.024-3.08-.06-4.621-.098l1-2h3z"/><path fill="#1a1b1b" d="M516 503h1c.457 3.815.565 7.663.75 11.5l.207 3.324.152 3.145.156 2.92L518 526h-3c-.265-2.111-.265-2.111-.11-5.031l.153-3.145.207-3.324.16-3.324c.314-5.87.314-5.87.59-8.176"/><path fill="#dad9d9" d="m461 506 2 3h-2zm-2 2 2 2-3 2c0-3 0-3 1-4m4 1c1.383.585 2.757 1.193 4.125 1.813l2.32 1.019L471 513c-.562 1.773-.562 1.773-2 3-1.508-.73-1.508-.73-3.125-2.187l-1.633-1.418C463 511 463 511 463 509m5 7 2 2-2 1-2-2z"/><path fill="#854d00" d="M1030 569h1l.438 3 .562 3h2c.35 6.3.35 6.3-1 9h-2c-1.248-4.865-1.378-10-1-15"/><path fill="#744301" d="M1005 571c3 3 3 3 3.363 4.973l-.05 2.09-.012 2.097C1008 582 1008 582 1006 584zm-2 4c2 2 2 2 2.23 3.727-.04 1.759-.132 3.516-.23 5.273h-1a73 73 0 0 1-.562-4.5l-.254-2.531z"/><path fill="#bdbdbd" d="M892 513h2c.266 1.969.266 1.969.25 4.5l.016 2.531L894 522h-2v-3c-2.261-.781-2.261-.781-5-1.125-1.671-.265-3.34-.549-5-.875v-1c2.307-.294 4.615-.45 6.934-.621L891 515z"/><path fill="#b6b6b6" d="M359 494h2c.52 2.406.52 2.406.813 5.5l.332 3.094L362 505h-3a76 76 0 0 1-1-5l-2-2 3-1z"/><path fill="#1e1e1b" d="M622 322c3.626 3.425 6.347 6.775 9 11l-3 1c-2-2.75-2-2.75-3.012-4.441-.984-1.698-.984-1.698-2.8-3.247L621 325z"/><path fill="#060604" d="M629 209v1a64.8 64.8 0 0 1-19 1v-2c6.098-1.464 12.884-1.33 19 0"/><path fill="#8a5000" d="M264 561h1c.552 5.656-.075 10.679-2 16h-1a71 71 0 0 1-.687-4.937l-.325-2.778L261 567l2-1c.364-1.66.7-3.327 1-5"/><path fill="#e7e6e7" d="M803 527c3.895 1.298 5.263 2.967 8 6v2c-2.875.438-2.875.438-6 0-1.702-2.862-2-4.671-2-8"/><path fill="#b5b4b5" d="M544 507h1c.098 1.645.098 1.645.063 3.813l-.028 2.144L545 515v3h-2v2c-1.969.012-1.969.012-4.5-.312l-2.531-.301L534 519v-1l3.375-.25c1.916-.195 1.916-.195 3.625-.75 1.589-2.6 1.968-4.84 2.563-7.812z"/><path fill="#efefef" d="M414 501c3.15-.406 6.327-.419 9.5-.5l2.746-.164c4.479-.094 4.479-.094 6.754.664.904 2.427.55 4.51 0 7l-2-1-.121-2.02L430 503c-2.656-.681-5.332-.653-8.062-.687-2.65-.075-5.29-.179-7.938-.313z"/><path fill="#e1e1dd" d="M576 252c3.617 1.105 6.995 2.702 10 5-.187 2.188-.187 2.188-1 4l-2.187-1.812c-1.867-1.514-3.563-2.612-5.688-3.813L575 254z"/><path fill="#dededa" d="M726 241c4.758 2.392 7.948 4.606 11 9l-3 1c-1.387-.926-1.387-.926-2.687-2.312l-1.325-1.364C729 246 729 246 729 244h-3z"/><path fill="#efeeeb" d="m707.625 235.938 1.852.013q2.26.02 4.523.049c-2.802 2.399-5.6 2.458-9.187 2.75l-3.293.297L699 239v-2c2.816-1.408 5.547-1.105 8.625-1.062"/><path fill="#e7e6e6" d="M555 501h12l-4 4-1-1-2 3z"/><path fill="#1f1e1a" d="M659 283c-1.77 2.142-2.876 2.96-5.562 3.813L651 287l-2-2a328 328 0 0 1 3.875-1.562l2.18-.88C657 282 657 282 659 283m-12 3c2.125.875 2.125.875 4 2h-6z"/><path fill="#141310" d="m696 235 2 1Zm-1 1c2.125.938 2.125.938 4 2-.797.38-.797.38-1.61.77-3.722 1.813-7.188 3.561-10.39 6.23.34-3.17.999-3.999 3.438-6.187C693 237 693 237 695 236"/><path fill="#f1f0f1" d="M491 522h3c.617 1.715.617 1.715.875 3.938l.305 2.214L495 530l-3 1c-1.548-3.095-1.255-5.56-1-9"/><path fill="#7e4900" d="M261 461h2c.96 2.882 1.106 4.699 1.063 7.688l-.028 2.449L264 473l-.312-2-.688-2h-3c-.145-1.75-.145-1.75.188-4l.292-2.25z"/><path fill="#c9c8c8" d="M456 524c2.526 2.363 3.888 3.665 5 7l-2 2h-3c-.293-1.969-.293-1.969-.187-4.5l.082-2.531z"/><path fill="#d6d6d6" d="M905 513h1c.381 1.782.704 3.577 1 5.375.6 3.942.6 3.942 2 7.625l-2 2c-2.01-3.337-2.244-5.884-2.187-9.75l.019-2.984zm4 2h1q.063 2.5 0 5l-2-1c.313-2.062.313-2.062 1-4"/><path fill="#f8f7f7" d="m695 505 2 1c1.252 4.888 1.6 9.522-1 14h-1c-.075-2.51-.092-4.991-.062-7.5l.013-2.168q.02-2.666.049-5.332"/><path fill="#d3d2d3" d="M472 497c2.5-.687 2.5-.687 5 0 .604 2.691.572 5.303 0 8h-2c-2.042-2.905-3-4.401-3-8"/><path fill="#e4e3e0" d="M734 310c1.172 1.762 1.172 1.762 2 4-1.047 1.957-1.047 1.957-2.75 3.813l-1.672 1.894L730 321l-2-1c1.117-2.285 1.117-2.285 2.875-5.062l1.742-2.786z"/><path fill="#32312c" d="M699 245c2 1 2 1 3 3l-2.25.188c-3.58 1.057-4.551 2.88-6.75 5.812l-3 1c1.202-4.676 3.572-6.51 7.344-9.18z"/><path fill="#cdcdcd" d="M840 528c1.375 1.813 1.375 1.813 2 4-3.26 2.306-4.886 3.121-8.875 2.688L831 534c2.088-1.118 3.854-1.97 6.188-2.437L839 531z"/><path fill="#dedede" d="M912 531c4.603.368 8.703 1.323 13 3v1c-4.61.492-8.89.312-13-2z"/><path fill="#e7e6e6" d="M575 501h10l-2.375 3-1.336 1.688L580 507h-2a140 140 0 0 1-1-4z"/><path fill="#d9d8d4" d="M625 294c2.6 2.51 4.99 4.986 7 8v2c-1.875-.187-1.875-.187-4-1-1.125-2.437-1.125-2.437-2-5l-2-2z"/><path fill="#d6d6d2" d="m614 277 1 2h2c1.324 1.68 1.324 1.68 2.688 3.875l1.386 2.18L622 287l-1 2c-4.875-4.75-4.875-4.75-6-7l1-2h-3z"/><path fill="#f3f3f1" d="M739 266c1.938.313 1.938.313 4 1 1 3 1 3 0 6l-3 1z"/><path fill="#e6e6e6" d="M623 501h8c-.125 2.125-.125 2.125-1 4-3-.625-3-.625-6-2zm7 4 2 2-2 1z"/><path fill="#faf9f9" d="M553 248c2.469-.3 2.469-.3 5.5-.312l3.031-.051L564 248l1 3-13-1z"/><path fill="#d2d2cb" d="m581 232 2 1c-3.341 3.58-5.738 5.897-10.75 6.125L570 239c2.432-1.946 4.96-3.647 7.625-5.25.59-.356 1.18-.712 1.79-1.078z"/><path fill="#d0d0cb" d="m677 191 3 1c.18 1.594.18 1.594-.125 3.5l-.258 1.906L679 199l-3 1z"/><path fill="#d8d8d4" d="M632 304c5.429 5.143 5.429 5.143 7 9-5.16-1.067-5.16-1.067-7-3-.187-3.125-.187-3.125 0-6"/><path fill="#0c0b0b" d="M622 285c4.762 4.286 4.762 4.286 6 8l-2 2a605 605 0 0 1-2.562-4.437l-1.442-2.497L621 286z"/><path fill="#1a1a18" d="M613 274c1.813.125 1.813.125 4 1 1.875 2.938 1.875 2.938 3 6l-2 2-.375-2-.625-2h-2c-1.125-2.5-1.125-2.5-2-5"/><path fill="#e3e3e3" d="M548 504h1c.168 1.863.168 1.863.188 4.313l.042 2.425c-.243 2.39-.504 3.582-2.23 5.262l-3-1c.75-2.562.75-2.562 2-5h1l.5-3z"/><path fill="#d5d4d4" d="M929 502c2.5-.5 2.5-.5 5 0 .607 2.69.572 5.304 0 8h-2c-.852-1.75-.852-1.75-1.625-4-.26-.743-.52-1.485-.79-2.25z"/><path fill="#f9f9f7" d="m707 340-1 3h-2v2l-3-1 1-2-3-1c4.625-2.125 4.625-2.125 8-1"/><path fill="#21211c" d="M727 332c0 3 0 3-1.207 4.422l-1.606 1.328-1.582 1.36L721 340l-3-1c2.964-2.387 5.941-4.734 9-7"/><path fill="#dcdbd7" d="M727 321c1.266 1.234 1.266 1.234 2 3-1.703 2.078-1.703 2.078-4.25 4.25l-2.516 2.203L720 332l-2-1 1.46-1.426c.633-.622 1.264-1.245 1.915-1.887l1.898-1.863c1.466-1.548 2.623-3.011 3.727-4.824"/><path fill="#e3e2e2" d="M565 510c2.625 1.188 2.625 1.188 5 3-.687 2.688-.687 2.688-2 5-1.5-1.187-1.5-1.187-3-3-.187-2.687-.187-2.687 0-5"/><path fill="#ececec" d="M633 508c2.468 1.152 4.048 2.048 6 4v2l-3 1c-2.393-2.482-3-3.493-3-7"/><path fill="#e9e9e9" d="M712 501h13c-4.166 3.125-5.074 3.629-10 3z"/><path fill="#eaeaea" d="M390 501h13c-4.166 3.125-5.074 3.629-10 3z"/><path fill="#e4e4e4" d="M646 501h12c-3 2-3 2-6 2-.743 1.97-.743 1.97-1 4l-.812-1.875C649.044 502.7 649.044 502.7 646 501"/><path fill="#f6f5f6" d="M458 502h2c.52 1.496.52 1.496.813 3.438l.332 1.933L461 509l-3 1c-1.075-3.225-1.088-4.736 0-8"/><path fill="#bab9ba" d="M682 502c.266 1.531.266 1.531.25 3.5l.016 1.969L682 509h-2a89 89 0 0 1-2-4l-2-2c2.076-.553 3.844-1 6-1"/><path fill="#f0f0f0" d="M854 501h13c-4 3-4 3-6.5 3.375C858 504 858 504 854 501"/><path fill="#d6d5d0" d="m578 194 2 1-1 3c-2.312 1.063-2.312 1.063-5 2-1.34.652-2.677 1.314-4 2 2.396-3.167 4.542-5.925 8-8"/><path fill="#2b2b2b" d="M797 525c2.667 2.49 4.557 4.634 6 8-4.63-1.462-4.63-1.462-6.375-4-.625-2-.625-2 .375-4"/><path fill="#dcdbd7" d="m710 337-1 3c-2.062-.812-2.062-.812-4-2 3-1 3-1 5-1m-5 3 2 1Zm2 1 1 3c-1.937.688-1.937.688-4 1v-2c1.5-1.125 1.5-1.125 3-2"/><path fill="#f1f1ef" d="m712 335 1 3-3-1zm-2 3 2 1v3c-1.937.875-1.937.875-4 1l-1-3c1.313-1.25 1.313-1.25 3-2"/><path fill="#f9f8f7" d="M610 271c2.063 2.313 2.063 2.313 4 5l-1 3h-3c-1.371-5.257-1.371-5.257 0-8"/><path fill="#d9d8d4" d="M689 252c1.63 4.074.377 7.022-1 11h-1c-1.442-6.25-1.442-6.25.438-9.437z"/><path fill="#f3f3f0" d="M569 249c3 .125 3 .125 6 1l1 3-8-1z"/><path fill="#fdfcfc" d="M696.625 239.875 699 240c-.25 2.063-.25 2.063-1 4a278 278 0 0 1-4-1c-2.248 1.352-2.248 1.352-4 3 2.773-5.942 2.773-5.942 6.625-6.125"/><path fill="#c1c1c1" d="M665 505c1.063 1.125 1.063 1.125 2 3-.375 3.188-.375 3.188-1 6l-2-1c-.23-1.594-.23-1.594-.187-3.5l.019-1.906C664 506 664 506 665 505"/><path fill="#dbdbdb" d="M841 504a216 216 0 0 1 3.063 2.375l1.722 1.336L847 509l-1 2-3-1-2 1z"/><path fill="#f3f3f1" d="M627 320h2l-.562 1.813c-.659 2.351-.659 2.351.562 5.187l-2 2c-1.062-1.187-1.062-1.187-2-3 .54-4.54.54-4.54 2-6"/><path fill="#fdfefd" d="M738 310a72 72 0 0 1 3 4l-6 2c1.875-4.875 1.875-4.875 3-6"/><path fill="#242421" d="m595 228 1 2c-.926 1.762-.926 1.762-2.312 3.688l-1.364 1.949L591 237l-2-1c1.184-3.433 3.385-5.56 6-8"/><path fill="#dbdcdc" d="M825 531q2.002.712 4 1.438l2.25.808L833 534v1c-6.308.357-6.308.357-8.937-1L823 533h2z"/><path fill="#f0eff0" d="m801 525 2 1c.365 1.325.694 2.66 1 4a88 88 0 0 0 2 4c-2.907-1.066-3.844-1.703-5.312-4.5C800 527 800 527 801 525"/><path fill="#9c9c9c" d="M663 525h3c.875 2.313.875 2.313 1 5-1.437 1.813-1.437 1.813-3 3-.246-1.33-.472-2.664-.687-4l-.387-2.25z"/><path fill="#f9f8f9" d="M769 503c2 .188 2 .188 4 1 .25 2.563.25 2.563 0 5l-2-1-2 3z"/><path fill="#d3d3ce" d="M607 293c4 2 4 2 4.875 3.938C612 299 612 299 610 302z"/><path fill="#f9f9f8" d="M740 257h2v3l2 1-6 5c.324-1.668.66-3.335 1-5l.438-2.312z"/><path fill="#0f0e0e" d="M680 252c1.033 2.788 1.045 3.868.063 6.75L679 261c-1.125-1.187-1.125-1.187-2-3 1.345-4.345 1.345-4.345 3-6"/><path fill="#0d0d0b" d="m580 190 3 2-7 4 1-3h2z"/><path fill="#d6d6d6" d="M858 534c1.25 1.25 1.25 1.25 2 3-1.75 2.188-1.75 2.188-4 4h-2c1.188-2.46 2.433-4.761 4-7"/><path fill="#cbcbcb" d="M678 529c1.375 1.875 1.375 1.875 2 4-2.75 1.375-2.75 1.375-6 2l-2-2 2.438-.875c2.695-.858 2.695-.858 3.562-3.125"/><path fill="#b7b7b7" d="M610 521c2.847 2.847 2.561 5.05 3 9l-3-1c-.293-1.848-.293-1.848-.187-4.062l.082-2.223z"/><path fill="#f7f7f7" d="m476 521 2 1c.25 2.563.25 2.563 0 5h-2l-1 3c-1.233-2.465-.867-3.068-.062-5.625l.59-1.914z"/><path fill="#ccc" d="M798 518c-.375 2.563-.375 2.563-1 5l-1.25-1.375c-1.814-1.685-3.503-2.618-5.75-3.625 5.75-1.125 5.75-1.125 8 0"/><path fill="#f8f8f8" d="m673 517 2 1Zm2 1 5 1-2 4c-1.5-1.375-1.5-1.375-3-3z"/><path fill="#d4d4cf" d="M744 308h3c-1.527 3.436-3.6 6.12-6 9l-1-3 3-1 .5-2.562z"/><path fill="#efefec" d="M651 281h2l1 3c-1.434.73-1.434.73-3.437 1.188l-1.997.48L647 286v-3h3z"/><path fill="#cfcec8" d="M589 191h-3l-1 2c-2.062 1.125-2.062 1.125-4 2v-3c2.918-2.084 4.664-2.191 8-1"/><path fill="#aaa" d="M897 526h2c-.023 1.75-.023 1.75-.375 4l-.336 2.25L898 534c-1.625-1.187-1.625-1.187-3-3 .688-2.687.688-2.687 2-5"/><path fill="#edebec" d="M908 520h2c.625 2.5.625 2.5 1 5h-3c-.75-1.937-.75-1.937-1-4z"/><path fill="#aeaeae" d="M574 511c1.188 1.25 1.188 1.25 2 3-1.187 2.25-1.187 2.25-3 4l-3-1v-2h3c.743-1.97.743-1.97 1-4"/><path fill="#f4f4f4" d="M820 509c.313 2.438.313 2.438 0 5-2 .813-2 .813-4 1 .375-2.437.375-2.437 1-5 2-1 2-1 3-1"/><path fill="#262626" d="M471 511c2.063.625 2.063.625 4 2 .75 2.125.75 2.125 1 4l-7-4z"/><path fill="#272727" d="M669 505h1l-.187 2.375L670 510c2 1.209 2 1.209 4 2l-1 2-3-1c-1.363-2.726-1.13-4.992-1-8"/><path fill="#f5f4f2" d="m718 334 3 1-1 3c-2.062.688-2.062.688-4 1 .875-3.875.875-3.875 2-5"/><path fill="#c4c3bc" d="M750 272c2.487 3.73 2.453 7.66 2 12h-1c.03-1.238.03-1.238.063-2.5L751 279h-2c.023-1.531.023-1.531.375-3.5l.336-1.969z"/><path fill="#e9e8e5" d="M586 235c-1.393 3.367-2.979 4.986-6 7 .611-4.645.611-4.645 2.438-6.312C584 235 584 235 586 235"/><path fill="#292924" d="M595 187c2.063.875 2.063.875 4 2l-1 2c-2.285.012-2.285.012-5.062-.312l-2.786-.301L588 190v-1c1.83-.033 3.641.07 5.469.16L595 189z"/><path fill="#e5e4e5" d="M478 527c-.75 2.438-.75 2.438-2 5-2.125.813-2.125.813-4 1 1.098-3.293 2.217-6 6-6"/><path fill="#cfcfcf" d="M767 512c2 2 2 2 2 5-1.531.074-1.531.074-3.5-.312l-1.969-.364L762 516c2.375-2.125 2.375-2.125 5-4"/><path fill="#f3f2f2" d="M910 509c.25 3 .25 3 0 6h-3c-.875-1.875-.875-1.875-1-4 2.2-2 2.2-2 4-2"/><path fill="#dcdcdc" d="M967 500h2c.195 1.75.195 1.75.125 4l-.055 2.25L969 508c-1.562-1.75-1.562-1.75-3-4 .188-2.25.188-2.25 1-4"/><path fill="#d7d7d7" d="M918 502v2c-1.312 1.07-1.312 1.07-3 2.125l-1.687 1.07L912 508c.375-2.437.375-2.437 1-5 2-1 2-1 5-1"/><path fill="#cfcfca" d="M747 301h3l-2 7c-2-3-2-3-1.812-5.187z"/><path fill="#c2c2bc" d="M740 289h1c1.11 4.439 1.11 4.439 1 7-1.937 2.438-1.937 2.438-4 4q.46-2.75.938-5.5l.527-3.094z"/><path fill="#4b4b46" d="m606 264 3 1v2l3 1-2 3-1-3h-2c-.625-2-.625-2-1-4"/><path fill="#e1e1db" d="m609 215-2.375 1.875c-2.593 2.024-2.593 2.024-4.625 4.125.606-4.606.606-4.606 2.375-6.375C606 214 606 214 609 215"/><path fill="#f8f8f8" d="M802 508h3c-.312 2.438-.312 2.438-1 5l-3 1c.313-3 .313-3 1-6"/><path fill="#e8e7e8" d="M837 503c1.938-.25 1.938-.25 4 0 .75 2 .75 2 1 4h-3c-1.187-2-1.187-2-2-4"/><path fill="#cacaca" d="M832 502v1c-1.68.605-1.68.605-3.875 1.188l-2.18.605L824 505l-2-2c3.748-1.82 5.986-2.262 10-1"/><path fill="#242424" d="M353 498c2.563.188 2.563.188 5 1v3c-3.062-.875-3.062-.875-6-2z"/><path fill="#f4f4f1" d="M664 335c2.5.875 2.5.875 5 2v2c-1.937-.312-1.937-.312-4-1zm6 3 2 1h-3z"/><path fill="#2c2c25" d="m631 333 7 6-2 1c-3.559-3.135-3.559-3.135-5-5z"/><path fill="#dbdbd7" d="M616 308c2.248 2.052 3.002 3.007 4 6l-2 2c-1.562-2.312-1.562-2.312-3-5z"/><path fill="#e7e7e4" d="M595 271c2.438.813 2.438.813 5 2l1 3c-2-.375-2-.375-4-1v-2h-2z"/><path fill="#cfcec9" d="M745 265c1.938.125 1.938.125 4 1 .75 3.063.75 3.063 1 6-3.906-3.71-3.906-3.71-5-5z"/><path fill="#2a2a2a" d="M612 526c2.323 1.373 3.627 2.677 5 5-1.937.313-1.937.313-4 0-.75-2.5-.75-2.5-1-5"/><path fill="#9c9c9c" d="M434 526h2c.012 1.75.012 1.75-.312 4l-.301 2.25L435 534h-1c-1.212-5.576-1.212-5.576 0-8"/><path fill="#d1d0d0" d="M820 522c1.84 2.496 2.906 5.109 4 8-2-.625-2-.625-4-2-.25-3.125-.25-3.125 0-6"/><path fill="#dedddd" d="m639 511 3 3h-3zm-2 3 3 1-2 2z"/><path fill="#171717" d="m625 503 3 1c.328 1.848.328 1.848.25 4.063-.015.733-.03 1.466-.047 2.222L628 512h-1l.063-3-.063-3h-2z"/><path fill="#262626" d="M581 504c.813 1.75.813 1.75 1 4-2.437 2.25-2.437 2.25-5 4 1.094-2.891 2.16-5.504 4-8"/><path fill="#25241f" d="m644 344 2 1-2 1zm2 1c2.063.375 2.063.375 4 1l-1 2c-2.062-.375-2.062-.375-4-1z"/><path fill="#4a4944" d="M735 300h3c-.254 4.662-.254 4.662-1 7l-2 1c-.08-1.332-.139-2.666-.187-4l-.106-2.25z"/><path fill="#f4f4f0" d="M596 191c2.876 1.246 4.485 2.222 6 5-1.875-.25-1.875-.25-4-1-1.25-2.062-1.25-2.062-2-4"/><path fill="#232323" d="m512 530 3 1-5 4c0-3 0-3 2-5"/><path fill="#eaeaea" d="m844 526 1 3c-1.937 1.188-1.937 1.188-4 2 .375-1.937.375-1.937 1-4z"/><path fill="#f4f3f3" d="M543 522c1.688 1.313 1.688 1.313 3 3-1.312 1.688-1.312 1.688-3 3-1.125-3.75-1.125-3.75 0-6"/><path fill="#d8d8d8" d="m670 514 3 1-3 1zm-2 0 2 4-4-2z"/><path fill="#222" d="M944 503h2c-.615 3.692-.615 3.692-2.562 5.25L942 509c.875-3 .875-3 2-6"/><path fill="#ddd" d="M461 497c2.125.375 2.125.375 4 1-1.875 1.625-1.875 1.625-4 3l-2-2z"/><path fill="#1b1a18" d="M638 340c2.468 1.152 4.048 2.048 6 4l-3 1c-1.687-1.312-1.687-1.312-3-3z"/><path fill="#d8d7d2" d="M723 248c2.438-.125 2.438-.125 5 0l1 2-2 2c-2.125-1.875-2.125-1.875-4-4"/><path fill="#deddd4" d="M586 198c2.063.875 2.063.875 4 2l-1 2c-3.062-.375-3.062-.375-6-1l3-1z"/><path fill="#d1d0d1" d="M807 532c2 .375 2 .375 4 1v2c-3 .125-3 .125-6 0l2-1z"/><path fill="#f3f3f3" d="M459 531c2.063.25 2.063.25 4 1v2l-5-1z"/><path fill="#bebebe" d="M840 528c1.188 1.938 1.188 1.938 2 4l-3 1-2-2h2z"/><path fill="#f5f4f5" d="m601 502 2 1c-.25 2.063-.25 2.063-1 4h-2z"/><path fill="#eeeeeb" d="M649 344c3 .375 3 .375 6 1l-2 2c-2.125-.25-2.125-.25-4-1z"/><path fill="#e9e9e5" d="M714 337h2c-.312 1.938-.312 1.938-1 4l-3 1c.875-3.875.875-3.875 2-5"/><path fill="#fdfdfc" d="M732 318c0 3 0 3-1.5 4.688L729 324l-1-3c1.938-1.687 1.938-1.687 4-3"/><path fill="#cfcfca" d="M604 287c2.125.75 2.125.75 4 2-.75 2.125-.75 2.125-2 4z"/><path fill="#fefefe" d="M717 240h2l-1 3-3-1zm-6 3 4 1Z"/><path fill="#282824" d="m696 235 2 1Zm-1 1c2.125.75 2.125.75 4 2l-6 2c.75-2.125.75-2.125 2-4"/><path fill="#161511" d="M585 226h2c-.812 2-.812 2-2 4h-3c1.375-2 1.375-2 3-4"/><path fill="#191919" d="M667 529c1.938.313 1.938.313 4 1l1 3c-3.875-1.75-3.875-1.75-5-4"/><path fill="#bbbaba" d="M933 526h2c-.375 3-.375 3-1 6-1.062-1.312-1.062-1.312-2-3z"/><path fill="#1b1b1b" d="M458 525h3l1 3-2 2z"/><path fill="#f8f7f7" d="M466 513c1.563 1.438 1.563 1.438 3 3l-3 1-1-3zm3 3 2 1Z"/><path fill="#d2d2d2" d="M634 506c3 1 3 1 4.188 3.063L639 511c-1.937-.812-1.937-.812-4-2z"/><path fill="#212121" d="m539 503 2 1-2 1zm2 1c1.625.813 1.625.813 3 2l-1 2c-1.562-1.437-1.562-1.437-3-3z"/><path fill="#131313" d="M671 503c2.563-.187 2.563-.187 5 0-3.75 3-3.75 3-6 3z"/><path fill="#975700" d="M1031 467h3c.188 2.5.188 2.5 0 5-1.5-.812-1.5-.812-3-2z"/><path fill="#282723" d="M714 343c-1.875 1.125-1.875 1.125-4 2l-2-2c2.49-1.245 3.41-.777 6 0"/><path fill="#deddda" d="m730 317 2 2-4 2z"/><path fill="#cbcbc6" d="m600 278 3 1c-.812 2.063-.812 2.063-2 4z"/><path fill="#d4d3cf" d="m583 256 3 1c-.312 2.063-.312 2.063-1 4a72 72 0 0 1-3-4z"/><path fill="#d1d1d1" d="m512 527 1 3c-1.937.688-1.937.688-4 1l1-3z"/><path fill="#f4f3f4" d="M844 510c1.188 1.313 1.188 1.313 2 3-1.375 1.688-1.375 1.688-3 3a100 100 0 0 1 0-5z"/><path fill="#f0f0f0" d="m565 510 3 3-3 2z"/><path fill="#4a494a" d="M567 501v3l-2 2c-.125-1.937-.125-1.937 0-4z"/><path fill="#e4e4df" d="m657 331 5 2-2 2c-1.625-.75-1.625-.75-3-2z"/><path fill="#e8e8e5" d="M739 316h2l-2 5c-1.125-1.375-1.125-1.375-2-3z"/><path fill="#cccbc6" d="M677 265c1.188 1.813 1.188 1.813 2 4-1.375 1.75-1.375 1.75-3 3z"/><path fill="#181815" d="M739 251c2.063.25 2.063.25 4 1-.25 2.063-.25 2.063-1 4z"/><path fill="#ecece9" d="m593 250 4 4c-2.562-.875-2.562-.875-5-2z"/><path fill="#e5e5e1" d="m689 245 1 2c-2.437 1.125-2.437 1.125-5 2l1-3z"/><path fill="#c6c7bf" d="M564 208h3l1 3c-2-.375-2-.375-4-1z"/><path fill="#141515" d="M883 528h2l1 3-3 1c-.125-2-.125-2 0-4"/><path fill="#171717" d="m676 504 3 1v2l-4-1z"/><path fill="#d5d5d0" d="m708 342-1 3h-3v-2c2-1 2-1 4-1"/><path fill="#20201d" d="m622 322 2 1v3l-3-1z"/><path fill="#dfdeda" d="M727 321c1.188 1.375 1.188 1.375 2 3-1.375 1.188-1.375 1.188-3 2z"/><path fill="#f1f1ef" d="m611 300 4 2-3 2z"/><path fill="#2e2e2a" d="M678 256h2l-1 5c-1.062-1.937-1.062-1.937-2-4z"/><path fill="#efefec" d="M572 202c.625 1.938.625 1.938 1 4l-2 1-1-3z"/><path fill="#0f0f0d" d="M680 194h3v3h-3z"/><path fill="#d5d5d5" d="m666 530 4 2-3 1z"/><path fill="#f6f6f6" d="m373 530 3 1-4 2z"/><path fill="#c3c3c3" d="M590 527h2v3h-3z"/><path fill="#f1f0f1" d="m818 526 3 3h-3z"/><path fill="#1d1d1d" d="m426 519 3 1v2h-3z"/><path fill="#e7e6e7" d="m468 516 2 2-2 1-2-2z"/><path fill="#1a1a1a" d="M889 513h3l-1 3h-2z"/><path fill="#262626" d="M426 513h3l-1 3h-2z"/><path fill="#dfdedf" d="M821 504h3l-1 3-3-2z"/><path fill="#181715" d="m625 291 3 1-2 3z"/><path fill="#f5f6f3" d="m647 283 3 1-1 2-3-1z"/><path fill="#eeeeec" d="m733 254 3 3h-3z"/><path fill="#e8e9e3" d="M696 238h2l-1 3-3-1z"/><path fill="#161613" d="m568 236 4 2-4 1z"/><path fill="#3f3f38" d="m600 222 1 3-3 1z"/><path fill="#d9d9d3" d="M676 197h3l-1 3h-2z"/><path fill="#191815" d="m580 190 3 2-4 2z"/><path fill="#181818" d="m349 529 3 1-1 2h-2z"/><path fill="#d9dada" d="m543 515 3 1-2 2-2-2z"/><path fill="#f9f8f9" d="M695 503h3l-1 3-2-1z"/><path fill="#eeeded" d="m942 501 3 1-1 2h-2z"/><path fill="#d4d3ce" d="m616 308 2 2-2 2z"/><path fill="#373832" d="M613 274h3l-1 3-2-1z"/><path fill="#23221d" d="m719 247 4 2-3 1z"/><path fill="#e7e7e4" d="M574 202h2l-1 3h-2z"/><path fill="#edece8" d="M622 190h2l-1 3h-2z"/><path fill="#1b1b1b" d="m497 528 3 1-2 2z"/><path fill="#f5f4f4" d="M908 520h2l-1 3-2-2z"/><path fill="#dcdcd8" d="m653 328 3 1-2 2z"/><path fill="#181816" d="m622 285 2 2-2 2-1-3z"/><path fill="#1d1d1b" d="m620 282 2 2-2 2-1-3z"/><path fill="#f2f2ef" d="m610 271 2 3h-3z"/><path fill="#ddded8" d="m579 253 2 2-3 1z"/><path fill="#e6e6e3" d="M690 250h2l-1 3-2-2z"/><path fill="#e2e1dd" d="m588 199 2 2-3 1z"/><path fill="#e2e2de" d="m596 191 3 1-2 2z"/></svg>